<svg width="231" height="344" viewBox="0 0 231 344" fill="none" xmlns="http://www.w3.org/2000/svg">
<path fill-rule="evenodd" clip-rule="evenodd" d="M228.687 35.3946C228.687 16.2402 213.292 0.713257 194.303 0.713257C151.556 0.713257 79.0296 0.713257 36.2854 0.713257C17.295 0.713257 1.90039 16.2402 1.90039 35.3946C1.90039 122.653 1.90039 350.548 1.90039 437.807C1.90039 456.961 17.295 472.488 36.2854 472.488C79.0296 472.488 151.556 472.488 194.303 472.488C213.292 472.488 228.687 456.961 228.687 437.807C228.687 350.548 228.687 122.653 228.687 35.3946Z" fill="white"/>
<path d="M228.187 35.3946C228.187 16.5123 213.012 1.21326 194.303 1.21326H194.052H193.8H193.548H193.295H193.042H192.788H192.533H192.277H192.021H191.764H191.507H191.249H190.99H190.73H190.47H190.21H189.948H189.686H189.424H189.16H188.896H188.632H188.367H188.101H187.835H187.568H187.3H187.032H186.763H186.494H186.224H185.953H185.682H185.41H185.138H184.865H184.591H184.317H184.042H183.767H183.491H183.215H182.938H182.66H182.382H182.103H181.824H181.544H181.264H180.983H180.701H180.419H180.136H179.853H179.57H179.285H179.001H178.715H178.43H178.143H177.857H177.569H177.281H176.993H176.704H176.415H176.125H175.834H175.543H175.252H174.96H174.668H174.375H174.081H173.788H173.493H173.198H172.903H172.607H172.311H172.014H171.717H171.42H171.122H170.823H170.524H170.225H169.925H169.624H169.323H169.022H168.72H168.418H168.116H167.813H167.509H167.206H166.901H166.597H166.291H165.986H165.68H165.374H165.067H164.76H164.452H164.144H163.836H163.527H163.218H162.908H162.599H162.288H161.978H161.667H161.355H161.043H160.731H160.419H160.106H159.792H159.479H159.165H158.85H158.536H158.221H157.905H157.59H157.273H156.957H156.64H156.323H156.006H155.688H155.37H155.052H154.733H154.414H154.095H153.775H153.455H153.135H152.814H152.493H152.172H151.851H151.529H151.207H150.885H150.562H150.239H149.916H149.592H149.269H148.945H148.62H148.296H147.971H147.646H147.321H146.995H146.669H146.343H146.017H145.69H145.364H145.037H144.709H144.382H144.054H143.726H143.398H143.069H142.741H142.412H142.083H141.753H141.424H141.094H140.764H140.434H140.104H139.773H139.443H139.112H138.781H138.449H138.118H137.786H137.454H137.122H136.79H136.458H136.125H135.793H135.46H135.127H134.794H134.46H134.127H133.793H133.46H133.126H132.792H132.457H132.123H131.789H131.454H131.119H130.785H130.45H130.115H129.779H129.444H129.109H128.773H128.438H128.102H127.766H127.43H127.094H126.758H126.422H126.085H125.749H125.412H125.076H124.739H124.403H124.066H123.729H123.392H123.055H122.718H122.381H122.044H121.707H121.369H121.032H120.695H120.357H120.02H119.682H119.345H119.007H118.67H118.332H117.995H117.657H117.319H116.982H116.644H116.306H115.969H115.631H115.293H114.955H114.618H114.28H113.942H113.605H113.267H112.929H112.592H112.254H111.916H111.579H111.241H110.904H110.566H110.229H109.892H109.554H109.217H108.88H108.542H108.205H107.868H107.531H107.194H106.857H106.52H106.184H105.847H105.51H105.174H104.837H104.501H104.165H103.828H103.492H103.156H102.82H102.484H102.149H101.813H101.478H101.142H100.807H100.472H100.137H99.8017H99.4668H99.1321H98.7975H98.4631H98.1288H97.7946H97.4606H97.1267H96.7929H96.4593H96.1258H95.7925H95.4594H95.1264H94.7936H94.4609H94.1284H93.796H93.4639H93.1319H92.8H92.4684H92.1369H91.8057H91.4746H91.1437H90.813H90.4824H90.1521H89.822H89.4921H89.1624H88.8329H88.5036H88.1745H87.8456H87.517H87.1886H86.8604H86.5324H86.2046H85.8771H85.5498H85.2228H84.896H84.5694H84.2431H83.917H83.5912H83.2657H82.9403H82.6153H82.2905H81.966H81.6417H81.3177H80.994H80.6706H80.3474H80.0245H79.7019H79.3796H79.0575H78.7358H78.4143H78.0932H77.7723H77.4518H77.1315H76.8116H76.4919H76.1726H75.8536H75.5349H75.2165H74.8985H74.5807H74.2633H73.9463H73.6295H73.3131H72.9971H72.6813H72.366H72.0509H71.7362H71.4219H71.1079H70.7943H70.481H70.1681H69.8556H69.5434H69.2316H68.9202H68.6092H68.2985H67.9882H67.6783H67.3688H67.0596H66.7509H66.4425H66.1346H65.827H65.5199H65.2131H64.9068H64.6009H64.2954H63.9903H63.6856H63.3813H63.0775H62.7741H62.4711H62.1685H61.8664H61.5647H61.2635H60.9627H60.6623H60.3624H60.063H59.764H59.4654H59.1673H58.8697H58.5725H58.2758H57.9796H57.6838H57.3886H57.0937H56.7994H56.5056H56.2122H55.9193H55.6269H55.335H55.0436H54.7527H54.4623H54.1724H53.8831H53.5942H53.3058H53.0179H52.7306H52.4438H52.1575H51.8717H51.5865H51.3017H51.0175H50.7339H50.4508H50.1682H49.8862H49.6047H49.3238H49.0434H48.7635H48.4843H48.2056H47.9274H47.6498H47.3728H47.0964H46.8205H46.5452H46.2704H45.9963H45.7227H45.4498H45.1774H44.9056H44.6344H44.3638H44.0938H43.8244H43.5556H43.2874H43.0198H42.7528H42.4865H42.2207H41.9556H41.6911H41.4272H41.164H40.9014H40.6394H40.3781H40.1174H39.8573H39.5979H39.3391H39.081H38.8235H38.5667H38.3106H38.0551H37.8003H37.5461H37.2926H37.0398H36.7876H36.5362H36.2854C17.5752 1.21326 2.40039 16.5123 2.40039 35.3946V35.9075V36.4236V36.9429V37.4653V37.991V38.5198V39.0517V39.5868V40.125V40.6663V41.2106V41.7581V42.3086V42.8622V43.4189V43.9785V44.5412V45.1069V45.6756V46.2472V46.8219V47.3994V47.98V48.5634V49.1498V49.7391V50.3312V50.9263V51.5242V52.1249V52.7286V53.335V53.9442V54.5563V55.1712V55.7888V56.4092V57.0323V57.6582V58.2868V58.9182V59.5522V60.1889V60.8283V61.4704V62.1151V62.7625V63.4125V64.0651V64.7203V65.3781V66.0385V66.7014V67.3669V68.035V68.7055V69.3786V70.0542V70.7323V71.4128V72.0958V72.7813V73.4692V74.1595V74.8523V75.5474V76.245V76.9449V77.6472V78.3518V79.0587V79.768V80.4796V81.1936V81.9097V82.6282V83.349V84.0719V84.7972V85.5246V86.2543V86.9861V87.7202V88.4564V89.1948V89.9353V90.678V91.4228V92.1697V92.9187V93.6698V94.423V95.1783V95.9355V96.6949V97.4562V98.2196V98.9849V99.7523V100.522V101.293V102.066V102.841V103.618V104.397V105.178V105.961V106.746V107.532V108.321V109.111V109.903V110.697V111.492V112.29V113.089V113.89V114.693V115.497V116.303V117.111V117.921V118.732V119.545V120.359V121.176V121.993V122.813V123.634V124.457V125.281V126.107V126.934V127.763V128.594V129.426V130.259V131.094V131.931V132.769V133.608V134.449V135.291V136.135V136.98V137.827V138.675V139.524V140.375V141.227V142.08V142.935V143.791V144.648V145.506V146.366V147.227V148.09V148.953V149.818V150.684V151.551V152.419V153.289V154.159V155.031V155.904V156.778V157.653V158.53V159.407V160.285V161.165V162.045V162.927V163.81V164.693V165.578V166.463V167.35V168.237V169.126V170.015V170.905V171.796V172.688V173.581V174.475V175.37V176.265V177.162V178.059V178.957V179.855V180.755V181.655V182.556V183.458V184.361V185.264V186.168V187.072V187.978V188.884V189.79V190.698V191.605V192.514V193.423V194.333V195.243V196.154V197.065V197.977V198.89V199.803V200.716V201.63V202.545V203.46V204.375V205.291V206.207V207.124V208.041V208.958V209.876V210.794V211.713V212.632V213.551V214.47V215.39V216.31V217.231V218.151V219.072V219.994V220.915V221.836V222.758V223.68V224.602V225.525V226.447V227.37V228.293V229.215V230.138V231.061V231.984V232.908V233.831V234.754V235.677V236.601V237.524V238.447V239.371V240.294V241.217V242.14V243.063V243.986V244.909V245.832V246.754V247.677V248.599V249.521V250.443V251.365V252.287V253.208V254.129V255.05V255.971V256.891V257.811V258.731V259.651V260.57V261.489V262.407V263.325V264.243V265.161V266.078V266.994V267.911V268.826V269.742V270.657V271.571V272.485V273.399V274.312V275.224V276.136V277.047V277.958V278.869V279.778V280.687V281.596V282.504V283.411V284.318V285.224V286.129V287.034V287.938V288.841V289.743V290.645V291.546V292.446V293.346V294.245V295.143V296.04V296.936V297.832V298.726V299.62V300.513V301.405V302.296V303.187V304.076V304.964V305.852V306.738V307.624V308.508V309.392V310.274V311.156V312.036V312.916V313.794V314.672V315.548V316.423V317.297V318.17V319.042V319.913V320.782V321.65V322.518V323.384V324.248V325.112V325.974V326.835V327.695V328.554V329.411V330.267V331.121V331.975V332.827V333.677V334.527V335.375V336.221V337.066V337.91V338.752V339.593V340.433V341.271V342.107V342.942V343.776V344.608V345.438V346.267V347.095V347.92V348.745V349.567V350.388V351.208V352.026V352.842V353.657V354.47V355.281V356.09V356.898V357.704V358.509V359.312V360.113V360.912V361.709V362.505V363.299V364.091V364.881V365.669V366.456V367.24V368.023V368.804V369.583V370.36V371.135V371.909V372.68V373.449V374.217V374.982V375.745V376.507V377.266V378.023V378.778V379.532V380.283V381.032V381.779V382.523V383.266V384.007V384.745V385.481V386.215V386.947V387.677V388.404V389.13V389.853V390.573V391.292V392.008V392.722V393.433V394.143V394.85V395.554V396.257V396.956V397.654V398.349V399.042V399.732V400.42V401.106V401.789V402.469V403.147V403.823V404.496V405.166V405.835V406.5V407.163V407.823V408.481V409.136V409.789V410.439V411.086V411.731V412.373V413.013V413.649V414.283V414.915V415.543V416.169V416.792V417.413V418.03V418.645V419.257V419.866V420.473V421.077V421.677V422.275V422.87V423.462V424.052V424.638V425.221V425.802V426.38V426.954V427.526V428.095V428.66V429.223V429.783V430.339V430.893V431.443V431.991V432.535V433.076V433.615V434.15V434.682V435.21V435.736V436.259V436.778V437.294V437.807C2.40039 456.689 17.5752 471.988 36.2854 471.988H36.5362H36.7876H37.0398H37.2926H37.5461H37.8003H38.0551H38.3106H38.5667H38.8235H39.081H39.3391H39.5979H39.8573H40.1174H40.3781H40.6394H40.9014H41.164H41.4272H41.6911H41.9556H42.2207H42.4865H42.7528H43.0198H43.2874H43.5556H43.8244H44.0938H44.3638H44.6344H44.9056H45.1774H45.4498H45.7227H45.9963H46.2704H46.5452H46.8205H47.0964H47.3728H47.6498H47.9274H48.2056H48.4843H48.7635H49.0434H49.3238H49.6047H49.8862H50.1682H50.4508H50.7339H51.0175H51.3017H51.5865H51.8717H52.1575H52.4438H52.7306H53.0179H53.3058H53.5942H53.8831H54.1724H54.4623H54.7527H55.0436H55.335H55.6269H55.9193H56.2122H56.5056H56.7994H57.0937H57.3886H57.6838H57.9796H58.2758H58.5725H58.8697H59.1673H59.4654H59.764H60.063H60.3624H60.6623H60.9627H61.2635H61.5647H61.8664H62.1685H62.4711H62.7741H63.0775H63.3813H63.6856H63.9903H64.2954H64.6009H64.9068H65.2131H65.5199H65.827H66.1346H66.4425H66.7509H67.0596H67.3688H67.6783H67.9882H68.2985H68.6092H68.9202H69.2316H69.5434H69.8556H70.1681H70.481H70.7943H71.1079H71.4219H71.7362H72.0509H72.366H72.6813H72.9971H73.3131H73.6295H73.9463H74.2633H74.5807H74.8985H75.2165H75.5349H75.8536H76.1726H76.4919H76.8116H77.1315H77.4518H77.7723H78.0932H78.4143H78.7358H79.0575H79.3796H79.7019H80.0245H80.3474H80.6706H80.994H81.3177H81.6417H81.966H82.2905H82.6153H82.9403H83.2657H83.5912H83.917H84.2431H84.5694H84.896H85.2228H85.5498H85.8771H86.2046H86.5324H86.8604H87.1886H87.517H87.8456H88.1745H88.5036H88.8329H89.1624H89.4921H89.822H90.1521H90.4824H90.813H91.1437H91.4746H91.8057H92.1369H92.4684H92.8H93.1319H93.4639H93.796H94.1284H94.4609H94.7936H95.1264H95.4594H95.7925H96.1258H96.4593H96.7929H97.1267H97.4606H97.7946H98.1288H98.4631H98.7975H99.1321H99.4668H99.8017H100.137H100.472H100.807H101.142H101.478H101.813H102.149H102.484H102.82H103.156H103.492H103.828H104.165H104.501H104.837H105.174H105.51H105.847H106.184H106.52H106.857H107.194H107.531H107.868H108.205H108.542H108.88H109.217H109.554H109.892H110.229H110.566H110.904H111.241H111.579H111.916H112.254H112.592H112.929H113.267H113.605H113.942H114.28H114.618H114.955H115.293H115.631H115.969H116.306H116.644H116.982H117.319H117.657H117.995H118.332H118.67H119.007H119.345H119.682H120.02H120.357H120.695H121.032H121.369H121.707H122.044H122.381H122.718H123.055H123.392H123.729H124.066H124.403H124.739H125.076H125.412H125.749H126.085H126.422H126.758H127.094H127.43H127.766H128.102H128.438H128.773H129.109H129.444H129.779H130.115H130.45H130.785H131.119H131.454H131.789H132.123H132.457H132.792H133.126H133.46H133.793H134.127H134.46H134.794H135.127H135.46H135.793H136.125H136.458H136.79H137.122H137.454H137.786H138.118H138.449H138.781H139.112H139.443H139.773H140.104H140.434H140.764H141.094H141.424H141.753H142.083H142.412H142.741H143.069H143.398H143.726H144.054H144.382H144.709H145.037H145.364H145.69H146.017H146.343H146.669H146.995H147.321H147.646H147.971H148.296H148.62H148.945H149.269H149.592H149.916H150.239H150.562H150.885H151.207H151.529H151.851H152.172H152.493H152.814H153.135H153.455H153.775H154.095H154.414H154.733H155.052H155.37H155.688H156.006H156.323H156.64H156.957H157.273H157.59H157.905H158.221H158.536H158.85H159.165H159.479H159.792H160.106H160.419H160.731H161.043H161.355H161.667H161.978H162.288H162.599H162.908H163.218H163.527H163.836H164.144H164.452H164.76H165.067H165.374H165.68H165.986H166.291H166.597H166.901H167.206H167.509H167.813H168.116H168.418H168.72H169.022H169.323H169.624H169.925H170.225H170.524H170.823H171.122H171.42H171.717H172.014H172.311H172.607H172.903H173.198H173.493H173.788H174.081H174.375H174.668H174.96H175.252H175.543H175.834H176.125H176.415H176.704H176.993H177.281H177.569H177.857H178.143H178.43H178.715H179.001H179.285H179.57H179.853H180.136H180.419H180.701H180.983H181.264H181.544H181.824H182.103H182.382H182.66H182.938H183.215H183.491H183.767H184.042H184.317H184.591H184.865H185.138H185.41H185.682H185.953H186.224H186.494H186.763H187.032H187.3H187.568H187.835H188.101H188.367H188.632H188.896H189.16H189.424H189.686H189.948H190.21H190.47H190.73H190.99H191.249H191.507H191.764H192.021H192.277H192.533H192.788H193.042H193.295H193.548H193.8H194.052H194.303C213.012 471.988 228.187 456.689 228.187 437.807V35.3946ZM228.187 35.3946V35.9075M228.187 35.3946V35.9075M228.187 35.9075V36.4236M228.187 35.9075V36.4236M228.187 36.4236V36.9429M228.187 36.4236V36.9429M228.187 36.9429V37.4653M228.187 36.9429V37.4653M228.187 37.4653V37.991M228.187 37.4653V37.991M228.187 37.991V38.5198M228.187 37.991V38.5198M228.187 38.5198V39.0517M228.187 38.5198V39.0517M228.187 39.0517V39.5868M228.187 39.0517V39.5868M228.187 39.5868V40.125M228.187 39.5868V40.125M228.187 40.125V40.6663M228.187 40.125V40.6663M228.187 40.6663V41.2106M228.187 40.6663V41.2106M228.187 41.2106V41.7581M228.187 41.2106V41.7581M228.187 41.7581V42.3086M228.187 41.7581V42.3086M228.187 42.3086V42.8622M228.187 42.3086V42.8622M228.187 42.8622V43.4189M228.187 42.8622V43.4189M228.187 43.4189V43.9785M228.187 43.4189V43.9785M228.187 43.9785V44.5412M228.187 43.9785V44.5412M228.187 44.5412V45.1069M228.187 44.5412V45.1069M228.187 45.1069V45.6756M228.187 45.1069V45.6756M228.187 45.6756V46.2472M228.187 45.6756V46.2472M228.187 46.2472V46.8219M228.187 46.2472V46.8219M228.187 46.8219V47.3994M228.187 46.8219V47.3994M228.187 47.3994V47.98M228.187 47.3994V47.98M228.187 47.98V48.5634M228.187 47.98V48.5634M228.187 48.5634V49.1498M228.187 48.5634V49.1498M228.187 49.1498V49.7391M228.187 49.1498V49.7391M228.187 49.7391V50.3312M228.187 49.7391V50.3312M228.187 50.3312V50.9263M228.187 50.3312V50.9263M228.187 50.9263V51.5242M228.187 50.9263V51.5242M228.187 51.5242V52.1249M228.187 51.5242V52.1249M228.187 52.1249V52.7286M228.187 52.1249V52.7286M228.187 52.7286V53.335M228.187 52.7286V53.335M228.187 53.335V53.9442M228.187 53.335V53.9442M228.187 53.9442V54.5563M228.187 53.9442V54.5563M228.187 54.5563V55.1712M228.187 54.5563V55.1712M228.187 55.1712V55.7888M228.187 55.1712V55.7888M228.187 55.7888V56.4092M228.187 55.7888V56.4092M228.187 56.4092V57.0323M228.187 56.4092V57.0323M228.187 57.0323V57.6582M228.187 57.0323V57.6582M228.187 57.6582V58.2868M228.187 57.6582V58.2868M228.187 58.2868V58.9182M228.187 58.2868V58.9182M228.187 58.9182V59.5522M228.187 58.9182V59.5522M228.187 59.5522V60.1889M228.187 59.5522V60.1889M228.187 60.1889V60.8283M228.187 60.1889V60.8283M228.187 60.8283V61.4704M228.187 60.8283V61.4704M228.187 61.4704V62.1151M228.187 61.4704V62.1151M228.187 62.1151V62.7625M228.187 62.1151V62.7625M228.187 62.7625V63.4125M228.187 62.7625V63.4125M228.187 63.4125V64.0651M228.187 63.4125V64.0651M228.187 64.0651V64.7203M228.187 64.0651V64.7203M228.187 64.7203V65.3781M228.187 64.7203V65.3781M228.187 65.3781V66.0385M228.187 65.3781V66.0385M228.187 66.0385V66.7014M228.187 66.0385V66.7014M228.187 66.7014V67.3669M228.187 66.7014V67.3669M228.187 67.3669V68.035M228.187 67.3669V68.035M228.187 68.035V68.7055M228.187 68.035V68.7055M228.187 68.7055V69.3786M228.187 68.7055V69.3786M228.187 69.3786V70.0542M228.187 69.3786V70.0542M228.187 70.0542V70.7323M228.187 70.0542V70.7323M228.187 70.7323V71.4128M228.187 70.7323V71.4128M228.187 71.4128V72.0958M228.187 71.4128V72.0958M228.187 72.0958V72.7813M228.187 72.0958V72.7813M228.187 72.7813V73.4692M228.187 72.7813V73.4692M228.187 73.4692V74.1595M228.187 73.4692V74.1595M228.187 74.1595V74.8523M228.187 74.1595V74.8523M228.187 74.8523V75.5474M228.187 74.8523V75.5474M228.187 75.5474V76.245M228.187 75.5474V76.245M228.187 76.245V76.9449M228.187 76.245V76.9449M228.187 76.9449V77.6472M228.187 76.9449V77.6472M228.187 77.6472V78.3518M228.187 77.6472V78.3518M228.187 78.3518V79.0587M228.187 78.3518V79.0587M228.187 79.0587V79.768M228.187 79.0587V79.768M228.187 79.768V80.4796M228.187 79.768V80.4796M228.187 80.4796V81.1936M228.187 80.4796V81.1936M228.187 81.1936V81.9097M228.187 81.1936V81.9097M228.187 81.9097V82.6282M228.187 81.9097V82.6282M228.187 82.6282V83.349M228.187 82.6282V83.349M228.187 83.349V84.0719M228.187 83.349V84.0719M228.187 84.0719V84.7972M228.187 84.0719V84.7972M228.187 84.7972V85.5246M228.187 84.7972V85.5246M228.187 85.5246V86.2543M228.187 85.5246V86.2543M228.187 86.2543V86.9861M228.187 86.2543V86.9861M228.187 86.9861V87.7202M228.187 86.9861V87.7202M228.187 87.7202V88.4564M228.187 87.7202V88.4564M228.187 88.4564V89.1948M228.187 88.4564V89.1948M228.187 89.1948V89.9353M228.187 89.1948V89.9353M228.187 89.9353V90.678M228.187 89.9353V90.678M228.187 90.678V91.4228M228.187 90.678V91.4228M228.187 91.4228V92.1697M228.187 91.4228V92.1697M228.187 92.1697V92.9187M228.187 92.1697V92.9187M228.187 92.9187V93.6698M228.187 92.9187V93.6698M228.187 93.6698V94.423M228.187 93.6698V94.423M228.187 94.423V95.1783M228.187 94.423V95.1783M228.187 95.1783V95.9355M228.187 95.1783V95.9355M228.187 95.9355V96.6949M228.187 95.9355V96.6949M228.187 96.6949V97.4562M228.187 96.6949V97.4562M228.187 97.4562V98.2196M228.187 97.4562V98.2196M228.187 98.2196V98.9849M228.187 98.2196V98.9849M228.187 98.9849V99.7523M228.187 98.9849V99.7523M228.187 99.7523V100.522M228.187 99.7523V100.522M228.187 100.522V101.293M228.187 100.522V101.293M228.187 101.293V102.066M228.187 101.293V102.066M228.187 102.066V102.841M228.187 102.066V102.841M228.187 102.841V103.618M228.187 102.841V103.618M228.187 103.618V104.397M228.187 103.618V104.397M228.187 104.397V105.178M228.187 104.397V105.178M228.187 105.178V105.961M228.187 105.178V105.961M228.187 105.961V106.746M228.187 105.961V106.746M228.187 106.746V107.532M228.187 106.746V107.532M228.187 107.532V108.321M228.187 107.532V108.321M228.187 108.321V109.111M228.187 108.321V109.111M228.187 109.111V109.903M228.187 109.111V109.903M228.187 109.903V110.697M228.187 109.903V110.697M228.187 110.697V111.492M228.187 110.697V111.492M228.187 111.492V112.29M228.187 111.492V112.29M228.187 112.29V113.089M228.187 112.29V113.089M228.187 113.089V113.89M228.187 113.089V113.89M228.187 113.89V114.693M228.187 113.89V114.693M228.187 114.693V115.497M228.187 114.693V115.497M228.187 115.497V116.303M228.187 115.497V116.303M228.187 116.303V117.111M228.187 116.303V117.111M228.187 117.111V117.921M228.187 117.111V117.921M228.187 117.921V118.732M228.187 117.921V118.732M228.187 118.732V119.545M228.187 118.732V119.545M228.187 119.545V120.359M228.187 119.545V120.359M228.187 120.359V121.176M228.187 120.359V121.176M228.187 121.176V121.993M228.187 121.176V121.993M228.187 121.993V122.813M228.187 121.993V122.813M228.187 122.813V123.634M228.187 122.813V123.634M228.187 123.634V124.457M228.187 123.634V124.457M228.187 124.457V125.281M228.187 124.457V125.281M228.187 125.281V126.107M228.187 125.281V126.107M228.187 126.107V126.934M228.187 126.107V126.934M228.187 126.934V127.763M228.187 126.934V127.763M228.187 127.763V128.594M228.187 127.763V128.594M228.187 128.594V129.426M228.187 128.594V129.426M228.187 129.426V130.259M228.187 129.426V130.259M228.187 130.259V131.094M228.187 130.259V131.094M228.187 131.094V131.931M228.187 131.094V131.931M228.187 131.931V132.769M228.187 131.931V132.769M228.187 132.769V133.608M228.187 132.769V133.608M228.187 133.608V134.449M228.187 133.608V134.449M228.187 134.449V135.291M228.187 134.449V135.291M228.187 135.291V136.135M228.187 135.291V136.135M228.187 136.135V136.98M228.187 136.135V136.98M228.187 136.98V137.827M228.187 136.98V137.827M228.187 137.827V138.675M228.187 137.827V138.675M228.187 138.675V139.524M228.187 138.675V139.524M228.187 139.524V140.375M228.187 139.524V140.375M228.187 140.375V141.227M228.187 140.375V141.227M228.187 141.227V142.08M228.187 141.227V142.08M228.187 142.08V142.935M228.187 142.08V142.935M228.187 142.935V143.791M228.187 142.935V143.791M228.187 143.791V144.648M228.187 143.791V144.648M228.187 144.648V145.506M228.187 144.648V145.506M228.187 145.506V146.366M228.187 145.506V146.366M228.187 146.366V147.227M228.187 146.366V147.227M228.187 147.227V148.09M228.187 147.227V148.09M228.187 148.09V148.953M228.187 148.09V148.953M228.187 148.953V149.818M228.187 148.953V149.818M228.187 149.818V150.684M228.187 149.818V150.684M228.187 150.684V151.551M228.187 150.684V151.551M228.187 151.551V152.419M228.187 151.551V152.419M228.187 152.419V153.289M228.187 152.419V153.289M228.187 153.289V154.159M228.187 153.289V154.159M228.187 154.159V155.031M228.187 154.159V155.031M228.187 155.031V155.904M228.187 155.031V155.904M228.187 155.904V156.778M228.187 155.904V156.778M228.187 156.778V157.653M228.187 156.778V157.653M228.187 157.653V158.53M228.187 157.653V158.53M228.187 158.53V159.407M228.187 158.53V159.407M228.187 159.407V160.285M228.187 159.407V160.285M228.187 160.285V161.165M228.187 160.285V161.165M228.187 161.165V162.045M228.187 161.165V162.045M228.187 162.045V162.927M228.187 162.045V162.927M228.187 162.927V163.81M228.187 162.927V163.81M228.187 163.81V164.693M228.187 163.81V164.693M228.187 164.693V165.578M228.187 164.693V165.578M228.187 165.578V166.463M228.187 165.578V166.463M228.187 166.463V167.35M228.187 166.463V167.35M228.187 167.35V168.237M228.187 167.35V168.237M228.187 168.237V169.126M228.187 168.237V169.126M228.187 169.126V170.015M228.187 169.126V170.015M228.187 170.015V170.905M228.187 170.015V170.905M228.187 170.905V171.796M228.187 170.905V171.796M228.187 171.796V172.688M228.187 171.796V172.688M228.187 172.688V173.581M228.187 172.688V173.581M228.187 173.581V174.475M228.187 173.581V174.475M228.187 174.475V175.37M228.187 174.475V175.37M228.187 175.37V176.265M228.187 175.37V176.265M228.187 176.265V177.162M228.187 176.265V177.162M228.187 177.162V178.059M228.187 177.162V178.059M228.187 178.059V178.957M228.187 178.059V178.957M228.187 178.957V179.855M228.187 178.957V179.855M228.187 179.855V180.755M228.187 179.855V180.755M228.187 180.755V181.655M228.187 180.755V181.655M228.187 181.655V182.556M228.187 181.655V182.556M228.187 182.556V183.458M228.187 182.556V183.458M228.187 183.458V184.361M228.187 183.458V184.361M228.187 184.361V185.264M228.187 184.361V185.264M228.187 185.264V186.168M228.187 185.264V186.168M228.187 186.168V187.072M228.187 186.168V187.072M228.187 187.072V187.978M228.187 187.072V187.978M228.187 187.978V188.884M228.187 187.978V188.884M228.187 188.884V189.79M228.187 188.884V189.79M228.187 189.79V190.698M228.187 189.79V190.698M228.187 190.698V191.605M228.187 190.698V191.605M228.187 191.605V192.514M228.187 191.605V192.514M228.187 192.514V193.423M228.187 192.514V193.423M228.187 193.423V194.333M228.187 193.423V194.333M228.187 194.333V195.243M228.187 194.333V195.243M228.187 195.243V196.154M228.187 195.243V196.154M228.187 196.154V197.065M228.187 196.154V197.065M228.187 197.065V197.977M228.187 197.065V197.977M228.187 197.977V198.89M228.187 197.977V198.89M228.187 198.89V199.803M228.187 198.89V199.803M228.187 199.803V200.716M228.187 199.803V200.716M228.187 200.716V201.63M228.187 200.716V201.63M228.187 201.63V202.545M228.187 201.63V202.545M228.187 202.545V203.46M228.187 202.545V203.46M228.187 203.46V204.375M228.187 203.46V204.375M228.187 204.375V205.291M228.187 204.375V205.291M228.187 205.291V206.207M228.187 205.291V206.207M228.187 206.207V207.124M228.187 206.207V207.124M228.187 207.124V208.041M228.187 207.124V208.041M228.187 208.041V208.958M228.187 208.041V208.958M228.187 208.958V209.876M228.187 208.958V209.876M228.187 209.876V210.794M228.187 209.876V210.794M228.187 210.794V211.713M228.187 210.794V211.713M228.187 211.713V212.632M228.187 211.713V212.632M228.187 212.632V213.551M228.187 212.632V213.551M228.187 213.551V214.47M228.187 213.551V214.47M228.187 214.47V215.39M228.187 214.47V215.39M228.187 215.39V216.31M228.187 215.39V216.31M228.187 216.31V217.231M228.187 216.31V217.231M228.187 217.231V218.151M228.187 217.231V218.151M228.187 218.151V219.072M228.187 218.151V219.072M228.187 219.072V219.994M228.187 219.072V219.994M228.187 219.994V220.915M228.187 219.994V220.915M228.187 220.915V221.836M228.187 220.915V221.836M228.187 221.836V222.758M228.187 221.836V222.758M228.187 222.758V223.68M228.187 222.758V223.68M228.187 223.68V224.602M228.187 223.68V224.602M228.187 224.602V225.525M228.187 224.602V225.525M228.187 225.525V226.447M228.187 225.525V226.447M228.187 226.447V227.37M228.187 226.447V227.37M228.187 227.37V228.293M228.187 227.37V228.293M228.187 228.293V229.215M228.187 228.293V229.215M228.187 229.215V230.138M228.187 229.215V230.138M228.187 230.138V231.061M228.187 230.138V231.061M228.187 231.061V231.984M228.187 231.061V231.984M228.187 231.984V232.908M228.187 231.984V232.908M228.187 232.908V233.831M228.187 232.908V233.831M228.187 233.831V234.754M228.187 233.831V234.754M228.187 234.754V235.677M228.187 234.754V235.677M228.187 235.677V236.601M228.187 235.677V236.601M228.187 236.601V237.524M228.187 236.601V237.524M228.187 237.524V238.447M228.187 237.524V238.447M228.187 238.447V239.371M228.187 238.447V239.371M228.187 239.371V240.294M228.187 239.371V240.294M228.187 240.294V241.217M228.187 240.294V241.217M228.187 241.217V242.14M228.187 241.217V242.14M228.187 242.14V243.063M228.187 242.14V243.063M228.187 243.063V243.986M228.187 243.063V243.986M228.187 243.986V244.909M228.187 243.986V244.909M228.187 244.909V245.832M228.187 244.909V245.832M228.187 245.832V246.754M228.187 245.832V246.754M228.187 246.754V247.677M228.187 246.754V247.677M228.187 247.677V248.599M228.187 247.677V248.599M228.187 248.599V249.521M228.187 248.599V249.521M228.187 249.521V250.443M228.187 249.521V250.443M228.187 250.443V251.365M228.187 250.443V251.365M228.187 251.365V252.287M228.187 251.365V252.287M228.187 252.287V253.208M228.187 252.287V253.208M228.187 253.208V254.129M228.187 253.208V254.129M228.187 254.129V255.05M228.187 254.129V255.05M228.187 255.05V255.971M228.187 255.05V255.971M228.187 255.971V256.891M228.187 255.971V256.891M228.187 256.891V257.811M228.187 256.891V257.811M228.187 257.811V258.731M228.187 257.811V258.731M228.187 258.731V259.651M228.187 258.731V259.651M228.187 259.651V260.57M228.187 259.651V260.57M228.187 260.57V261.489M228.187 260.57V261.489M228.187 261.489V262.407M228.187 261.489V262.407M228.187 262.407V263.325M228.187 262.407V263.325M228.187 263.325V264.243M228.187 263.325V264.243M228.187 264.243V265.161M228.187 264.243V265.161M228.187 265.161V266.078M228.187 265.161V266.078M228.187 266.078V266.994M228.187 266.078V266.994M228.187 266.994V267.911M228.187 266.994V267.911M228.187 267.911V268.826M228.187 267.911V268.826M228.187 268.826V269.742M228.187 268.826V269.742M228.187 269.742V270.657M228.187 269.742V270.657M228.187 270.657V271.571M228.187 270.657V271.571M228.187 271.571V272.485M228.187 271.571V272.485M228.187 272.485V273.399M228.187 272.485V273.399M228.187 273.399V274.312M228.187 273.399V274.312M228.187 274.312V275.224M228.187 274.312V275.224M228.187 275.224V276.136M228.187 275.224V276.136M228.187 276.136V277.047M228.187 276.136V277.047M228.187 277.047V277.958M228.187 277.047V277.958M228.187 277.958V278.869M228.187 277.958V278.869M228.187 278.869V279.778M228.187 278.869V279.778M228.187 279.778V280.687M228.187 279.778V280.687M228.187 280.687V281.596M228.187 280.687V281.596M228.187 281.596V282.504M228.187 281.596V282.504M228.187 282.504V283.411M228.187 282.504V283.411M228.187 283.411V284.318M228.187 283.411V284.318M228.187 284.318V285.224M228.187 284.318V285.224M228.187 285.224V286.129M228.187 285.224V286.129M228.187 286.129V287.034M228.187 286.129V287.034M228.187 287.034V287.938M228.187 287.034V287.938M228.187 287.938V288.841M228.187 287.938V288.841M228.187 288.841V289.743M228.187 288.841V289.743M228.187 289.743V290.645M228.187 289.743V290.645M228.187 290.645V291.546M228.187 290.645V291.546M228.187 291.546V292.446M228.187 291.546V292.446M228.187 292.446V293.346M228.187 292.446V293.346M228.187 293.346V294.245M228.187 293.346V294.245M228.187 294.245V295.143M228.187 294.245V295.143M228.187 295.143V296.04M228.187 295.143V296.04M228.187 296.04V296.936M228.187 296.04V296.936M228.187 296.936V297.832M228.187 296.936V297.832M228.187 297.832V298.726M228.187 297.832V298.726M228.187 298.726V299.62M228.187 298.726V299.62M228.187 299.62V300.513M228.187 299.62V300.513M228.187 300.513V301.405M228.187 300.513V301.405M228.187 301.405V302.296M228.187 301.405V302.296M228.187 302.296V303.187M228.187 302.296V303.187M228.187 303.187V304.076M228.187 303.187V304.076M228.187 304.076V304.964M228.187 304.076V304.964M228.187 304.964V305.852M228.187 304.964V305.852M228.187 305.852V306.738M228.187 305.852V306.738M228.187 306.738V307.624M228.187 306.738V307.624M228.187 307.624V308.508M228.187 307.624V308.508M228.187 308.508V309.392M228.187 308.508V309.392M228.187 309.392V310.274M228.187 309.392V310.274M228.187 310.274V311.156M228.187 310.274V311.156M228.187 311.156V312.036M228.187 311.156V312.036M228.187 312.036V312.916M228.187 312.036V312.916M228.187 312.916V313.794M228.187 312.916V313.794M228.187 313.794V314.672M228.187 313.794V314.672M228.187 314.672V315.548M228.187 314.672V315.548M228.187 315.548V316.423M228.187 315.548V316.423M228.187 316.423V317.297M228.187 316.423V317.297M228.187 317.297V318.17M228.187 317.297V318.17M228.187 318.17V319.042M228.187 318.17V319.042M228.187 319.042V319.913M228.187 319.042V319.913M228.187 319.913V320.782M228.187 319.913V320.782M228.187 320.782V321.65M228.187 320.782V321.65M228.187 321.65V322.518M228.187 321.65V322.518M228.187 322.518V323.384M228.187 322.518V323.384M228.187 323.384V324.248M228.187 323.384V324.248M228.187 324.248V325.112M228.187 324.248V325.112M228.187 325.112V325.974M228.187 325.112V325.974M228.187 325.974V326.835M228.187 325.974V326.835M228.187 326.835V327.695M228.187 326.835V327.695M228.187 327.695V328.554M228.187 327.695V328.554M228.187 328.554V329.411M228.187 328.554V329.411M228.187 329.411V330.267M228.187 329.411V330.267M228.187 330.267V331.121M228.187 330.267V331.121M228.187 331.121V331.975M228.187 331.121V331.975M228.187 331.975V332.827M228.187 331.975V332.827M228.187 332.827V333.677M228.187 332.827V333.677M228.187 333.677V334.527M228.187 333.677V334.527M228.187 334.527V335.375M228.187 334.527V335.375M228.187 335.375V336.221M228.187 335.375V336.221M228.187 336.221V337.066M228.187 336.221V337.066M228.187 337.066V337.91M228.187 337.066V337.91M228.187 337.91V338.752M228.187 337.91V338.752M228.187 338.752V339.593M228.187 338.752V339.593M228.187 339.593V340.433M228.187 339.593V340.433M228.187 340.433V341.271M228.187 340.433V341.271M228.187 341.271V342.107M228.187 341.271V342.107M228.187 342.107V342.942M228.187 342.107V342.942M228.187 342.942V343.776M228.187 342.942V343.776M228.187 343.776V344.608M228.187 343.776V344.608M228.187 344.608V345.438M228.187 344.608V345.438M228.187 345.438V346.267M228.187 345.438V346.267M228.187 346.267V347.095M228.187 346.267V347.095M228.187 347.095V347.92M228.187 347.095V347.92M228.187 347.92V348.745M228.187 347.92V348.745M228.187 348.745V349.567M228.187 348.745V349.567M228.187 349.567V350.388M228.187 349.567V350.388M228.187 350.388V351.208M228.187 350.388V351.208M228.187 351.208V352.026M228.187 351.208V352.026M228.187 352.026V352.842M228.187 352.026V352.842M228.187 352.842V353.657M228.187 352.842V353.657M228.187 353.657V354.47M228.187 353.657V354.47M228.187 354.47V355.281M228.187 354.47V355.281M228.187 355.281V356.09M228.187 355.281V356.09M228.187 356.09V356.898M228.187 356.09V356.898M228.187 356.898V357.704M228.187 356.898V357.704M228.187 357.704V358.509M228.187 357.704V358.509M228.187 358.509V359.312M228.187 358.509V359.312M228.187 359.312V360.113M228.187 359.312V360.113M228.187 360.113V360.912M228.187 360.113V360.912M228.187 360.912V361.709M228.187 360.912V361.709M228.187 361.709V362.505M228.187 361.709V362.505M228.187 362.505V363.299M228.187 362.505V363.299M228.187 363.299V364.091M228.187 363.299V364.091M228.187 364.091V364.881M228.187 364.091V364.881M228.187 364.881V365.669M228.187 364.881V365.669M228.187 365.669V366.456M228.187 365.669V366.456M228.187 366.456V367.24M228.187 366.456V367.24M228.187 367.24V368.023M228.187 367.24V368.023M228.187 368.023V368.804M228.187 368.023V368.804M228.187 368.804V369.583M228.187 368.804V369.583M228.187 369.583V370.36M228.187 369.583V370.36M228.187 370.36V371.135M228.187 370.36V371.135M228.187 371.135V371.909M228.187 371.135V371.909M228.187 371.909V372.68M228.187 371.909V372.68M228.187 372.68V373.449M228.187 372.68V373.449M228.187 373.449V374.217M228.187 373.449V374.217M228.187 374.217V374.982M228.187 374.217V374.982M228.187 374.982V375.745M228.187 374.982V375.745M228.187 375.745V376.507M228.187 375.745V376.507M228.187 376.507V377.266M228.187 376.507V377.266M228.187 377.266V378.023M228.187 377.266V378.023M228.187 378.023V378.778M228.187 378.023V378.778M228.187 378.778V379.532M228.187 378.778V379.532M228.187 379.532V380.283M228.187 379.532V380.283M228.187 380.283V381.032M228.187 380.283V381.032M228.187 381.032V381.779M228.187 381.032V381.779M228.187 381.779V382.523M228.187 381.779V382.523M228.187 382.523V383.266M228.187 382.523V383.266M228.187 383.266V384.007M228.187 383.266V384.007M228.187 384.007V384.745M228.187 384.007V384.745M228.187 384.745V385.481M228.187 384.745V385.481M228.187 385.481V386.215M228.187 385.481V386.215M228.187 386.215V386.947M228.187 386.215V386.947M228.187 386.947V387.677M228.187 386.947V387.677M228.187 387.677V388.404M228.187 387.677V388.404M228.187 388.404V389.13M228.187 388.404V389.13M228.187 389.13V389.853M228.187 389.13V389.853M228.187 389.853V390.573M228.187 389.853V390.573M228.187 390.573V391.292M228.187 390.573V391.292M228.187 391.292V392.008M228.187 391.292V392.008M228.187 392.008V392.722M228.187 392.008V392.722M228.187 392.722V393.433M228.187 392.722V393.433M228.187 393.433V394.143M228.187 393.433V394.143M228.187 394.143V394.85M228.187 394.143V394.85M228.187 394.85V395.554M228.187 394.85V395.554M228.187 395.554V396.257M228.187 395.554V396.257M228.187 396.257V396.956M228.187 396.257V396.956M228.187 396.956V397.654M228.187 396.956V397.654M228.187 397.654V398.349M228.187 397.654V398.349M228.187 398.349V399.042M228.187 398.349V399.042M228.187 399.042V399.732M228.187 399.042V399.732M228.187 399.732V400.42M228.187 399.732V400.42M228.187 400.42V401.106M228.187 400.42V401.106M228.187 401.106V401.789M228.187 401.106V401.789M228.187 401.789V402.469M228.187 401.789V402.469M228.187 402.469V403.147M228.187 402.469V403.147M228.187 403.147V403.823M228.187 403.147V403.823M228.187 403.823V404.496M228.187 403.823V404.496M228.187 404.496V405.166M228.187 404.496V405.166M228.187 405.166V405.835M228.187 405.166V405.835M228.187 405.835V406.5M228.187 405.835V406.5M228.187 406.5V407.163M228.187 406.5V407.163M228.187 407.163V407.823M228.187 407.163V407.823M228.187 407.823V408.481M228.187 407.823V408.481M228.187 408.481V409.136M228.187 408.481V409.136M228.187 409.136V409.789M228.187 409.136V409.789M228.187 409.789V410.439M228.187 409.789V410.439M228.187 410.439V411.086M228.187 410.439V411.086M228.187 411.086V411.731M228.187 411.086V411.731M228.187 411.731V412.373M228.187 411.731V412.373M228.187 412.373V413.013M228.187 412.373V413.013M228.187 413.013V413.649M228.187 413.013V413.649M228.187 413.649V414.283M228.187 413.649V414.283M228.187 414.283V414.915M228.187 414.283V414.915M228.187 414.915V415.543M228.187 414.915V415.543M228.187 415.543V416.169M228.187 415.543V416.169M228.187 416.169V416.792M228.187 416.169V416.792M228.187 416.792V417.413M228.187 416.792V417.413M228.187 417.413V418.03M228.187 417.413V418.03M228.187 418.03V418.645M228.187 418.03V418.645M228.187 418.645V419.257M228.187 418.645V419.257M228.187 419.257V419.866M228.187 419.257V419.866M228.187 419.866V420.473M228.187 419.866V420.473M228.187 420.473V421.077M228.187 420.473V421.077M228.187 421.077V421.677M228.187 421.077V421.677M228.187 421.677V422.275M228.187 421.677V422.275M228.187 422.275V422.87M228.187 422.275V422.87M228.187 422.87V423.462M228.187 422.87V423.462M228.187 423.462V424.052M228.187 423.462V424.052M228.187 424.052V424.638M228.187 424.052V424.638M228.187 424.638V425.221M228.187 424.638V425.221M228.187 425.221V425.802V425.221Z" stroke="#37383C"/>
<path d="M223.649 35.7787C223.649 19.1887 210.316 5.74634 193.877 5.74634H193.634H193.39H193.144H192.899H192.652H192.405H192.157H191.908H191.659H191.408H191.158H190.906H190.654H190.401H190.147H189.892H189.637H189.381H189.125H188.868H188.61H188.351H188.092H187.832H187.571H187.31H187.048H186.785H186.522H186.258H185.993H185.728H185.462H185.196H184.928H184.66H184.392H184.123H183.853H183.582H183.311H183.04H182.767H182.494H182.221H181.947H181.672H181.396H181.12H180.844H180.566H180.289H180.01H179.731H179.452H179.171H178.891H178.609H178.327H178.045H177.762H177.478H177.194H176.909H176.624H176.338H176.052H175.765H175.477H175.189H174.9H174.611H174.321H174.031H173.74H173.449H173.157H172.865H172.572H172.279H171.985H171.69H171.395H171.1H170.804H170.508H170.211H169.913H169.615H169.317H169.018H168.719H168.419H168.119H167.818H167.517H167.215H166.913H166.61H166.307H166.003H165.699H165.395H165.09H164.785H164.479H164.173H163.866H163.559H163.251H162.943H162.635H162.326H162.017H161.707H161.397H161.087H160.776H160.465H160.153H159.841H159.529H159.216H158.903H158.589H158.275H157.961H157.646H157.331H157.015H156.699H156.383H156.067H155.75H155.432H155.115H154.797H154.478H154.16H153.841H153.521H153.202H152.881H152.561H152.24H151.919H151.598H151.276H150.954H150.632H150.309H149.987H149.663H149.34H149.016H148.692H148.368H148.043H147.718H147.393H147.067H146.741H146.415H146.089H145.762H145.435H145.108H144.781H144.453H144.125H143.797H143.469H143.14H142.811H142.482H142.152H141.823H141.493H141.163H140.833H140.502H140.171H139.84H139.509H139.178H138.846H138.514H138.182H137.85H137.518H137.185H136.852H136.519H136.186H135.853H135.52H135.186H134.852H134.518H134.184H133.849H133.515H133.18H132.845H132.51H132.175H131.84H131.505H131.169H130.833H130.498H130.162H129.826H129.489H129.153H128.817H128.48H128.143H127.807H127.47H127.133H126.796H126.458H126.121H125.784H125.446H125.109H124.771H124.433H124.095H123.757H123.419H123.081H122.743H122.405H122.067H121.729H121.39H121.052H120.713H120.375H120.036H119.698H119.359H119.021H118.682H118.343H118.004H117.666H117.327H116.988H116.649H116.31H115.972H115.633H115.294H114.955H114.616H114.277H113.939H113.6H113.261H112.922H112.583H112.245H111.906H111.567H111.229H110.89H110.551H110.213H109.874H109.536H109.198H108.859H108.521H108.183H107.845H107.506H107.168H106.83H106.493H106.155H105.817H105.479H105.142H104.804H104.467H104.13H103.792H103.455H103.118H102.781H102.445H102.108H101.771H101.435H101.099H100.762H100.426H100.09H99.7545H99.4188H99.0832H98.7478H98.4126H98.0774H97.7425H97.4076H97.073H96.7385H96.4041H96.0699H95.7359H95.4021H95.0684H94.7349H94.4016H94.0684H93.7354H93.4027H93.0701H92.7377H92.4055H92.0735H91.7417H91.4101H91.0787H90.7476H90.4166H90.0859H89.7553H89.425H89.0949H88.7651H88.4355H88.1061H87.7769H87.448H87.1193H86.7909H86.4627H86.1348H85.8071H85.4797H85.1526H84.8257H84.4991H84.1727H83.8466H83.5208H83.1953H82.87H82.545H82.2203H81.8959H81.5718H81.248H80.9245H80.6013H80.2784H79.9558H79.6335H79.3115H78.9899H78.6685H78.3475H78.0268H77.7064H77.3864H77.0666H76.7473H76.4282H76.1095H75.7912H75.4732H75.1555H74.8382H74.5213H74.2047H73.8884H73.5726H73.2571H72.942H72.6272H72.3128H71.9988H71.6852H71.372H71.0592H70.7467H70.4347H70.123H69.8118H69.5009H69.1905H68.8804H68.5708H68.2616H67.9528H67.6444H67.3364H67.0289H66.7218H66.4152H66.1089H65.8031H65.4978H65.1929H64.8884H64.5844H64.2808H63.9777H63.6751H63.3729H63.0712H62.7699H62.4691H62.1688H61.869H61.5696H61.2708H60.9724H60.6745H60.377H60.0801H59.7837H59.4878H59.1923H58.8974H58.603H58.3091H58.0157H57.7229H57.4305H57.1387H56.8474H56.5566H56.2664H55.9766H55.6875H55.3988H55.1108H54.8232H54.5362H54.2498H53.9639H53.6785H53.3938H53.1096H52.8259H52.5428H52.2603H51.9784H51.6971H51.4163H51.1361H50.8565H50.5775H50.2991H50.0213H49.7441H49.4674H49.1914H48.916H48.6412H48.367H48.0934H47.8205H47.5482H47.2765H47.0054H46.7349H46.4651H46.1959H45.9274H45.6595H45.3922H45.1256H44.8597H44.5944H44.3297H44.0658H43.8024H43.5398H43.2778H43.0165H42.7558H42.4959H42.2366H41.978H41.7201H41.4628H41.2063H40.9505H40.6953H40.4409H40.1871H39.9341H39.6818H39.4301H39.1792H38.9291H38.6796H38.4309H38.1829H37.9356H37.689H37.4432H37.1982H36.9538H36.7102C20.2716 5.74634 6.93799 19.1887 6.93799 35.7787V36.2724V36.7695V37.2701V37.774V38.2813V38.7919V39.3059V39.8232V40.3439V40.8678V41.3951V41.9256V42.4594V42.9964V43.5367V44.0802V44.6269V45.1769V45.73V46.2863V46.8457V47.4083V47.974V48.5429V49.1148V49.6898V50.268V50.8491V51.4334V52.0206V52.611V53.2043V53.8006V54.3999V55.0021V55.6074V56.2155V56.8267V57.4407V58.0576V58.6774V59.3001V59.9257V60.5541V61.1854V61.8194V62.4563V63.096V63.7385V64.3837V65.0317V65.6825V66.336V66.9922V67.6511V68.3126V68.9769V69.6438V70.3134V70.9856V71.6605V72.3379V73.018V73.7006V74.3858V75.0736V75.7639V76.4567V77.1521V77.85V78.5503V79.2531V79.9584V80.6662V81.3763V82.0889V82.8039V83.5213V84.2411V84.9633V85.6878V86.4146V87.1438V87.8753V88.6091V89.3452V90.0836V90.8242V91.5671V92.3122V93.0596V93.8091V94.5609V95.3148V96.0709V96.8291V97.5895V98.352V99.1167V99.8834V100.652V101.423V102.196V102.971V103.748V104.527V105.308V106.091V106.876V107.663V108.452V109.243V110.036V110.831V111.628V112.426V113.227V114.029V114.833V115.639V116.447V117.256V118.068V118.881V119.696V120.512V121.331V122.151V122.973V123.796V124.622V125.449V126.277V127.107V127.939V128.773V129.608V130.445V131.283V132.123V132.964V133.807V134.651V135.497V136.345V137.194V138.044V138.896V139.749V140.604V141.46V142.318V143.177V144.037V144.899V145.762V146.627V147.492V148.359V149.228V150.097V150.968V151.84V152.714V153.588V154.464V155.341V156.22V157.099V157.98V158.861V159.744V160.628V161.513V162.4V163.287V164.175V165.065V165.955V166.847V167.739V168.633V169.527V170.423V171.319V172.217V173.115V174.014V174.915V175.816V176.718V177.62V178.524V179.429V180.334V181.24V182.147V183.055V183.964V184.873V185.783V186.694V187.605V188.517V189.43V190.344V191.258V192.173V193.089V194.005V194.922V195.839V196.757V197.676V198.595V199.515V200.435V201.356V202.277V203.199V204.121V205.044V205.967V206.891V207.815V208.739V209.664V210.589V211.515V212.441V213.367V214.294V215.221V216.148V217.076V218.003V218.932V219.86V220.789V221.718V222.647V223.576V224.505V225.435V226.365V227.295V228.225V229.155V230.085V231.016V231.946V232.877V233.807V234.738V235.669V236.599V237.53V238.461V239.391V240.322V241.252V242.183V243.113V244.044V244.974V245.904V246.834V247.764V248.693V249.623V250.552V251.481V252.41V253.339V254.267V255.195V256.123V257.051V257.978V258.905V259.832V260.758V261.684V262.61V263.535V264.46V265.384V266.308V267.232V268.155V269.078V270V270.922V271.843V272.764V273.684V274.604V275.523V276.441V277.359V278.277V279.194V280.11V281.025V281.94V282.855V283.768V284.681V285.593V286.505V287.416V288.326V289.235V290.144V291.051V291.958V292.865V293.77V294.675V295.578V296.481V297.383V298.284V299.184V300.084V300.982V301.879V302.776V303.671V304.566V305.459V306.352V307.243V308.134V309.023V309.912V310.799V311.685V312.57V313.454V314.337V315.219V316.1V316.979V317.857V318.734V319.61V320.485V321.358V322.23V323.101V323.971V324.839V325.706V326.572V327.436V328.3V329.161V330.022V330.881V331.738V332.594V333.449V334.302V335.154V336.005V336.854V337.701V338.547V339.392V340.235V341.076V341.916V342.754V343.591V344.426V345.259V346.091V346.921V347.75V348.577V349.402V350.226V351.048V351.868V352.686V353.503V354.318V355.131V355.942V356.752V357.56V358.366V359.17V359.972V360.773V361.571V362.368V363.163V363.955V364.746V365.535V366.322V367.107V367.89V368.671V369.451V370.228V371.003V371.776V372.546V373.315V374.082V374.847V375.609V376.37V377.128V377.884V378.638V379.39V380.139V380.886V381.632V382.374V383.115V383.853V384.59V385.323V386.055V386.784V387.511V388.235V388.958V389.677V390.395V391.11V391.822V392.533V393.24V393.946V394.648V395.349V396.047V396.742V397.435V398.125V398.813V399.498V400.181V400.861V401.538V402.213V402.885V403.555V404.222V404.886V405.548V406.207V406.863V407.516V408.167V408.815V409.46V410.103V410.742V411.379V412.013V412.645V413.273V413.899V414.521V415.141V415.758V416.372V416.983V417.591V418.197V418.799V419.398V419.994V420.588V421.178V421.765V422.35V422.931V423.509V424.084V424.656V425.225V425.79V426.353V426.912V427.469V428.022V428.572V429.118V429.662V430.202V430.739V431.273V431.804V432.331V432.855V433.375V433.893V434.407V434.917V435.425V435.929V436.429V436.926V437.42C6.93799 454.01 20.2716 467.452 36.7102 467.452H36.9538H37.1982H37.4432H37.689H37.9356H38.1829H38.4309H38.6796H38.9291H39.1792H39.4301H39.6818H39.9341H40.1871H40.4409H40.6953H40.9505H41.2063H41.4628H41.7201H41.978H42.2366H42.4959H42.7558H43.0165H43.2778H43.5398H43.8024H44.0658H44.3297H44.5944H44.8597H45.1256H45.3922H45.6595H45.9274H46.1959H46.4651H46.7349H47.0054H47.2765H47.5482H47.8205H48.0934H48.367H48.6412H48.916H49.1914H49.4674H49.7441H50.0213H50.2991H50.5775H50.8565H51.1361H51.4163H51.6971H51.9784H52.2603H52.5428H52.8259H53.1096H53.3938H53.6785H53.9639H54.2498H54.5362H54.8232H55.1108H55.3988H55.6875H55.9766H56.2664H56.5566H56.8474H57.1387H57.4305H57.7229H58.0157H58.3091H58.603H58.8974H59.1923H59.4878H59.7837H60.0801H60.377H60.6745H60.9724H61.2708H61.5696H61.869H62.1688H62.4691H62.7699H63.0712H63.3729H63.6751H63.9777H64.2808H64.5844H64.8884H65.1929H65.4978H65.8031H66.1089H66.4152H66.7218H67.0289H67.3364H67.6444H67.9528H68.2616H68.5708H68.8804H69.1905H69.5009H69.8118H70.123H70.4347H70.7467H71.0592H71.372H71.6852H71.9988H72.3128H72.6272H72.942H73.2571H73.5726H73.8884H74.2047H74.5213H74.8382H75.1555H75.4732H75.7912H76.1095H76.4282H76.7473H77.0666H77.3864H77.7064H78.0268H78.3475H78.6685H78.9899H79.3115H79.6335H79.9558H80.2784H80.6013H80.9245H81.248H81.5718H81.8959H82.2203H82.545H82.87H83.1953H83.5208H83.8466H84.1727H84.4991H84.8257H85.1526H85.4797H85.8071H86.1348H86.4627H86.7909H87.1193H87.448H87.7769H88.1061H88.4355H88.7651H89.0949H89.425H89.7553H90.0859H90.4166H90.7476H91.0787H91.4101H91.7417H92.0735H92.4055H92.7377H93.0701H93.4027H93.7354H94.0684H94.4016H94.7349H95.0684H95.4021H95.7359H96.0699H96.4041H96.7385H97.073H97.4076H97.7425H98.0774H98.4126H98.7478H99.0832H99.4188H99.7545H100.09H100.426H100.762H101.099H101.435H101.771H102.108H102.445H102.781H103.118H103.455H103.792H104.13H104.467H104.804H105.142H105.479H105.817H106.155H106.493H106.83H107.168H107.506H107.845H108.183H108.521H108.859H109.198H109.536H109.874H110.213H110.551H110.89H111.229H111.567H111.906H112.245H112.583H112.922H113.261H113.6H113.939H114.277H114.616H114.955H115.294H115.633H115.972H116.31H116.649H116.988H117.327H117.666H118.004H118.343H118.682H119.021H119.359H119.698H120.036H120.375H120.713H121.052H121.39H121.729H122.067H122.405H122.743H123.081H123.419H123.757H124.095H124.433H124.771H125.109H125.446H125.784H126.121H126.458H126.796H127.133H127.47H127.807H128.143H128.48H128.817H129.153H129.489H129.826H130.162H130.498H130.833H131.169H131.505H131.84H132.175H132.51H132.845H133.18H133.515H133.849H134.184H134.518H134.852H135.186H135.52H135.853H136.186H136.519H136.852H137.185H137.518H137.85H138.182H138.514H138.846H139.178H139.509H139.84H140.171H140.502H140.833H141.163H141.493H141.823H142.152H142.482H142.811H143.14H143.469H143.797H144.125H144.453H144.781H145.108H145.435H145.762H146.089H146.415H146.741H147.067H147.393H147.718H148.043H148.368H148.692H149.016H149.34H149.663H149.987H150.309H150.632H150.954H151.276H151.598H151.919H152.24H152.561H152.881H153.202H153.521H153.841H154.16H154.478H154.797H155.115H155.432H155.75H156.067H156.383H156.699H157.015H157.331H157.646H157.961H158.275H158.589H158.903H159.216H159.529H159.841H160.153H160.465H160.776H161.087H161.397H161.707H162.017H162.326H162.635H162.943H163.251H163.559H163.866H164.173H164.479H164.785H165.09H165.395H165.699H166.003H166.307H166.61H166.913H167.215H167.517H167.818H168.119H168.419H168.719H169.018H169.317H169.615H169.913H170.211H170.508H170.804H171.1H171.395H171.69H171.985H172.279H172.572H172.865H173.157H173.449H173.74H174.031H174.321H174.611H174.9H175.189H175.477H175.765H176.052H176.338H176.624H176.909H177.194H177.478H177.762H178.045H178.327H178.609H178.891H179.171H179.452H179.731H180.01H180.289H180.566H180.844H181.12H181.396H181.672H181.947H182.221H182.494H182.767H183.04H183.311H183.582H183.853H184.123H184.392H184.66H184.928H185.196H185.462H185.728H185.993H186.258H186.522H186.785H187.048H187.31H187.571H187.832H188.092H188.351H188.61H188.868H189.125H189.381H189.637H189.892H190.147H190.401H190.654H190.906H191.158H191.408H191.659H191.908H192.157H192.405H192.652H192.899H193.144H193.39H193.634H193.877C210.316 467.452 223.649 454.01 223.649 437.42V35.7787ZM223.649 35.7787V36.2724M223.649 35.7787V36.2724M223.649 36.2724V36.7695M223.649 36.2724V36.7695M223.649 36.7695V37.2701M223.649 36.7695V37.2701M223.649 37.2701V37.774M223.649 37.2701V37.774M223.649 37.774V38.2813M223.649 37.774V38.2813M223.649 38.2813V38.7919M223.649 38.2813V38.7919M223.649 38.7919V39.3059M223.649 38.7919V39.3059M223.649 39.3059V39.8232M223.649 39.3059V39.8232M223.649 39.8232V40.3439M223.649 39.8232V40.3439M223.649 40.3439V40.8678M223.649 40.3439V40.8678M223.649 40.8678V41.3951M223.649 40.8678V41.3951M223.649 41.3951V41.9256M223.649 41.3951V41.9256M223.649 41.9256V42.4594M223.649 41.9256V42.4594M223.649 42.4594V42.9964M223.649 42.4594V42.9964M223.649 42.9964V43.5367M223.649 42.9964V43.5367M223.649 43.5367V44.0802M223.649 43.5367V44.0802M223.649 44.0802V44.6269M223.649 44.0802V44.6269M223.649 44.6269V45.1769M223.649 44.6269V45.1769M223.649 45.1769V45.73M223.649 45.1769V45.73M223.649 45.73V46.2863M223.649 45.73V46.2863M223.649 46.2863V46.8457M223.649 46.2863V46.8457M223.649 46.8457V47.4083M223.649 46.8457V47.4083M223.649 47.4083V47.974M223.649 47.4083V47.974M223.649 47.974V48.5429M223.649 47.974V48.5429M223.649 48.5429V49.1148M223.649 48.5429V49.1148M223.649 49.1148V49.6898M223.649 49.1148V49.6898M223.649 49.6898V50.268M223.649 49.6898V50.268M223.649 50.268V50.8491M223.649 50.268V50.8491M223.649 50.8491V51.4334M223.649 50.8491V51.4334M223.649 51.4334V52.0206M223.649 51.4334V52.0206M223.649 52.0206V52.611M223.649 52.0206V52.611M223.649 52.611V53.2043M223.649 52.611V53.2043M223.649 53.2043V53.8006M223.649 53.2043V53.8006M223.649 53.8006V54.3999M223.649 53.8006V54.3999M223.649 54.3999V55.0021M223.649 54.3999V55.0021M223.649 55.0021V55.6074M223.649 55.0021V55.6074M223.649 55.6074V56.2155M223.649 55.6074V56.2155M223.649 56.2155V56.8267M223.649 56.2155V56.8267M223.649 56.8267V57.4407M223.649 56.8267V57.4407M223.649 57.4407V58.0576M223.649 57.4407V58.0576M223.649 58.0576V58.6774M223.649 58.0576V58.6774M223.649 58.6774V59.3001M223.649 58.6774V59.3001M223.649 59.3001V59.9257M223.649 59.3001V59.9257M223.649 59.9257V60.5541M223.649 59.9257V60.5541M223.649 60.5541V61.1854M223.649 60.5541V61.1854M223.649 61.1854V61.8194M223.649 61.1854V61.8194M223.649 61.8194V62.4563M223.649 61.8194V62.4563M223.649 62.4563V63.096M223.649 62.4563V63.096M223.649 63.096V63.7385M223.649 63.096V63.7385M223.649 63.7385V64.3837M223.649 63.7385V64.3837M223.649 64.3837V65.0317M223.649 64.3837V65.0317M223.649 65.0317V65.6825M223.649 65.0317V65.6825M223.649 65.6825V66.336M223.649 65.6825V66.336M223.649 66.336V66.9922M223.649 66.336V66.9922M223.649 66.9922V67.6511M223.649 66.9922V67.6511M223.649 67.6511V68.3126M223.649 67.6511V68.3126M223.649 68.3126V68.9769M223.649 68.3126V68.9769M223.649 68.9769V69.6438M223.649 68.9769V69.6438M223.649 69.6438V70.3134M223.649 69.6438V70.3134M223.649 70.3134V70.9856M223.649 70.3134V70.9856M223.649 70.9856V71.6605M223.649 70.9856V71.6605M223.649 71.6605V72.3379M223.649 71.6605V72.3379M223.649 72.3379V73.018M223.649 72.3379V73.018M223.649 73.018V73.7006M223.649 73.018V73.7006M223.649 73.7006V74.3858M223.649 73.7006V74.3858M223.649 74.3858V75.0736M223.649 74.3858V75.0736M223.649 75.0736V75.7639M223.649 75.0736V75.7639M223.649 75.7639V76.4567M223.649 75.7639V76.4567M223.649 76.4567V77.1521M223.649 76.4567V77.1521M223.649 77.1521V77.85M223.649 77.1521V77.85M223.649 77.85V78.5503M223.649 77.85V78.5503M223.649 78.5503V79.2531M223.649 78.5503V79.2531M223.649 79.2531V79.9584M223.649 79.2531V79.9584M223.649 79.9584V80.6662M223.649 79.9584V80.6662M223.649 80.6662V81.3763M223.649 80.6662V81.3763M223.649 81.3763V82.0889M223.649 81.3763V82.0889M223.649 82.0889V82.8039M223.649 82.0889V82.8039M223.649 82.8039V83.5213M223.649 82.8039V83.5213M223.649 83.5213V84.2411M223.649 83.5213V84.2411M223.649 84.2411V84.9633M223.649 84.2411V84.9633M223.649 84.9633V85.6878M223.649 84.9633V85.6878M223.649 85.6878V86.4146M223.649 85.6878V86.4146M223.649 86.4146V87.1438M223.649 86.4146V87.1438M223.649 87.1438V87.8753M223.649 87.1438V87.8753M223.649 87.8753V88.6091M223.649 87.8753V88.6091M223.649 88.6091V89.3452M223.649 88.6091V89.3452M223.649 89.3452V90.0836M223.649 89.3452V90.0836M223.649 90.0836V90.8242M223.649 90.0836V90.8242M223.649 90.8242V91.5671M223.649 90.8242V91.5671M223.649 91.5671V92.3122M223.649 91.5671V92.3122M223.649 92.3122V93.0596M223.649 92.3122V93.0596M223.649 93.0596V93.8091M223.649 93.0596V93.8091M223.649 93.8091V94.5609M223.649 93.8091V94.5609M223.649 94.5609V95.3148M223.649 94.5609V95.3148M223.649 95.3148V96.0709M223.649 95.3148V96.0709M223.649 96.0709V96.8291M223.649 96.0709V96.8291M223.649 96.8291V97.5895M223.649 96.8291V97.5895M223.649 97.5895V98.352M223.649 97.5895V98.352M223.649 98.352V99.1167M223.649 98.352V99.1167M223.649 99.1167V99.8834M223.649 99.1167V99.8834M223.649 99.8834V100.652M223.649 99.8834V100.652M223.649 100.652V101.423M223.649 100.652V101.423M223.649 101.423V102.196M223.649 101.423V102.196M223.649 102.196V102.971M223.649 102.196V102.971M223.649 102.971V103.748M223.649 102.971V103.748M223.649 103.748V104.527M223.649 103.748V104.527M223.649 104.527V105.308M223.649 104.527V105.308M223.649 105.308V106.091M223.649 105.308V106.091M223.649 106.091V106.876M223.649 106.091V106.876M223.649 106.876V107.663M223.649 106.876V107.663M223.649 107.663V108.452M223.649 107.663V108.452M223.649 108.452V109.243M223.649 108.452V109.243M223.649 109.243V110.036M223.649 109.243V110.036M223.649 110.036V110.831M223.649 110.036V110.831M223.649 110.831V111.628M223.649 110.831V111.628M223.649 111.628V112.426M223.649 111.628V112.426M223.649 112.426V113.227M223.649 112.426V113.227M223.649 113.227V114.029M223.649 113.227V114.029M223.649 114.029V114.833M223.649 114.029V114.833M223.649 114.833V115.639M223.649 114.833V115.639M223.649 115.639V116.447M223.649 115.639V116.447M223.649 116.447V117.256M223.649 116.447V117.256M223.649 117.256V118.068M223.649 117.256V118.068M223.649 118.068V118.881M223.649 118.068V118.881M223.649 118.881V119.696M223.649 118.881V119.696M223.649 119.696V120.512M223.649 119.696V120.512M223.649 120.512V121.331M223.649 120.512V121.331M223.649 121.331V122.151M223.649 121.331V122.151M223.649 122.151V122.973M223.649 122.151V122.973M223.649 122.973V123.796M223.649 122.973V123.796M223.649 123.796V124.622M223.649 123.796V124.622M223.649 124.622V125.449M223.649 124.622V125.449M223.649 125.449V126.277M223.649 125.449V126.277M223.649 126.277V127.107M223.649 126.277V127.107M223.649 127.107V127.939M223.649 127.107V127.939M223.649 127.939V128.773M223.649 127.939V128.773M223.649 128.773V129.608M223.649 128.773V129.608M223.649 129.608V130.445M223.649 129.608V130.445M223.649 130.445V131.283M223.649 130.445V131.283M223.649 131.283V132.123M223.649 131.283V132.123M223.649 132.123V132.964M223.649 132.123V132.964M223.649 132.964V133.807M223.649 132.964V133.807M223.649 133.807V134.651M223.649 133.807V134.651M223.649 134.651V135.497M223.649 134.651V135.497M223.649 135.497V136.345M223.649 135.497V136.345M223.649 136.345V137.194M223.649 136.345V137.194M223.649 137.194V138.044M223.649 137.194V138.044M223.649 138.044V138.896M223.649 138.044V138.896M223.649 138.896V139.749M223.649 138.896V139.749M223.649 139.749V140.604M223.649 139.749V140.604M223.649 140.604V141.46M223.649 140.604V141.46M223.649 141.46V142.318M223.649 141.46V142.318M223.649 142.318V143.177M223.649 142.318V143.177M223.649 143.177V144.037M223.649 143.177V144.037M223.649 144.037V144.899M223.649 144.037V144.899M223.649 144.899V145.762M223.649 144.899V145.762M223.649 145.762V146.627M223.649 145.762V146.627M223.649 146.627V147.492M223.649 146.627V147.492M223.649 147.492V148.359M223.649 147.492V148.359M223.649 148.359V149.228M223.649 148.359V149.228M223.649 149.228V150.097M223.649 149.228V150.097M223.649 150.097V150.968M223.649 150.097V150.968M223.649 150.968V151.84M223.649 150.968V151.84M223.649 151.84V152.714M223.649 151.84V152.714M223.649 152.714V153.588M223.649 152.714V153.588M223.649 153.588V154.464M223.649 153.588V154.464M223.649 154.464V155.341M223.649 154.464V155.341M223.649 155.341V156.22M223.649 155.341V156.22M223.649 156.22V157.099M223.649 156.22V157.099M223.649 157.099V157.98M223.649 157.099V157.98M223.649 157.98V158.861M223.649 157.98V158.861M223.649 158.861V159.744M223.649 158.861V159.744M223.649 159.744V160.628M223.649 159.744V160.628M223.649 160.628V161.513M223.649 160.628V161.513M223.649 161.513V162.4M223.649 161.513V162.4M223.649 162.4V163.287M223.649 162.4V163.287M223.649 163.287V164.175M223.649 163.287V164.175M223.649 164.175V165.065M223.649 164.175V165.065M223.649 165.065V165.955M223.649 165.065V165.955M223.649 165.955V166.847M223.649 165.955V166.847M223.649 166.847V167.739M223.649 166.847V167.739M223.649 167.739V168.633M223.649 167.739V168.633M223.649 168.633V169.527M223.649 168.633V169.527M223.649 169.527V170.423M223.649 169.527V170.423M223.649 170.423V171.319M223.649 170.423V171.319M223.649 171.319V172.217M223.649 171.319V172.217M223.649 172.217V173.115M223.649 172.217V173.115M223.649 173.115V174.014M223.649 173.115V174.014M223.649 174.014V174.915M223.649 174.014V174.915M223.649 174.915V175.816M223.649 174.915V175.816M223.649 175.816V176.718M223.649 175.816V176.718M223.649 176.718V177.62M223.649 176.718V177.62M223.649 177.62V178.524M223.649 177.62V178.524M223.649 178.524V179.429M223.649 178.524V179.429M223.649 179.429V180.334M223.649 179.429V180.334M223.649 180.334V181.24M223.649 180.334V181.24M223.649 181.24V182.147M223.649 181.24V182.147M223.649 182.147V183.055M223.649 182.147V183.055M223.649 183.055V183.964M223.649 183.055V183.964M223.649 183.964V184.873M223.649 183.964V184.873M223.649 184.873V185.783M223.649 184.873V185.783M223.649 185.783V186.694M223.649 185.783V186.694M223.649 186.694V187.605M223.649 186.694V187.605M223.649 187.605V188.517M223.649 187.605V188.517M223.649 188.517V189.43M223.649 188.517V189.43M223.649 189.43V190.344M223.649 189.43V190.344M223.649 190.344V191.258M223.649 190.344V191.258M223.649 191.258V192.173M223.649 191.258V192.173M223.649 192.173V193.089M223.649 192.173V193.089M223.649 193.089V194.005M223.649 193.089V194.005M223.649 194.005V194.922M223.649 194.005V194.922M223.649 194.922V195.839M223.649 194.922V195.839M223.649 195.839V196.757M223.649 195.839V196.757M223.649 196.757V197.676M223.649 196.757V197.676M223.649 197.676V198.595M223.649 197.676V198.595M223.649 198.595V199.515M223.649 198.595V199.515M223.649 199.515V200.435M223.649 199.515V200.435M223.649 200.435V201.356M223.649 200.435V201.356M223.649 201.356V202.277M223.649 201.356V202.277M223.649 202.277V203.199M223.649 202.277V203.199M223.649 203.199V204.121M223.649 203.199V204.121M223.649 204.121V205.044M223.649 204.121V205.044M223.649 205.044V205.967M223.649 205.044V205.967M223.649 205.967V206.891M223.649 205.967V206.891M223.649 206.891V207.815M223.649 206.891V207.815M223.649 207.815V208.739M223.649 207.815V208.739M223.649 208.739V209.664M223.649 208.739V209.664M223.649 209.664V210.589M223.649 209.664V210.589M223.649 210.589V211.515M223.649 210.589V211.515M223.649 211.515V212.441M223.649 211.515V212.441M223.649 212.441V213.367M223.649 212.441V213.367M223.649 213.367V214.294M223.649 213.367V214.294M223.649 214.294V215.221M223.649 214.294V215.221M223.649 215.221V216.148M223.649 215.221V216.148M223.649 216.148V217.076M223.649 216.148V217.076M223.649 217.076V218.003M223.649 217.076V218.003M223.649 218.003V218.932M223.649 218.003V218.932M223.649 218.932V219.86M223.649 218.932V219.86M223.649 219.86V220.789M223.649 219.86V220.789M223.649 220.789V221.718M223.649 220.789V221.718M223.649 221.718V222.647M223.649 221.718V222.647M223.649 222.647V223.576M223.649 222.647V223.576M223.649 223.576V224.505M223.649 223.576V224.505M223.649 224.505V225.435M223.649 224.505V225.435M223.649 225.435V226.365M223.649 225.435V226.365M223.649 226.365V227.295M223.649 226.365V227.295M223.649 227.295V228.225M223.649 227.295V228.225M223.649 228.225V229.155M223.649 228.225V229.155M223.649 229.155V230.085M223.649 229.155V230.085M223.649 230.085V231.016M223.649 230.085V231.016M223.649 231.016V231.946M223.649 231.016V231.946M223.649 231.946V232.877M223.649 231.946V232.877M223.649 232.877V233.807M223.649 232.877V233.807M223.649 233.807V234.738M223.649 233.807V234.738M223.649 234.738V235.669M223.649 234.738V235.669M223.649 235.669V236.599M223.649 235.669V236.599M223.649 236.599V237.53M223.649 236.599V237.53M223.649 237.53V238.461M223.649 237.53V238.461M223.649 238.461V239.391M223.649 238.461V239.391M223.649 239.391V240.322M223.649 239.391V240.322M223.649 240.322V241.252M223.649 240.322V241.252M223.649 241.252V242.183M223.649 241.252V242.183M223.649 242.183V243.113M223.649 242.183V243.113M223.649 243.113V244.044M223.649 243.113V244.044M223.649 244.044V244.974M223.649 244.044V244.974M223.649 244.974V245.904M223.649 244.974V245.904M223.649 245.904V246.834M223.649 245.904V246.834M223.649 246.834V247.764M223.649 246.834V247.764M223.649 247.764V248.693M223.649 247.764V248.693M223.649 248.693V249.623M223.649 248.693V249.623M223.649 249.623V250.552M223.649 249.623V250.552M223.649 250.552V251.481M223.649 250.552V251.481M223.649 251.481V252.41M223.649 251.481V252.41M223.649 252.41V253.339M223.649 252.41V253.339M223.649 253.339V254.267M223.649 253.339V254.267M223.649 254.267V255.195M223.649 254.267V255.195M223.649 255.195V256.123M223.649 255.195V256.123M223.649 256.123V257.051M223.649 256.123V257.051M223.649 257.051V257.978M223.649 257.051V257.978M223.649 257.978V258.905M223.649 257.978V258.905M223.649 258.905V259.832M223.649 258.905V259.832M223.649 259.832V260.758M223.649 259.832V260.758M223.649 260.758V261.684M223.649 260.758V261.684M223.649 261.684V262.61M223.649 261.684V262.61M223.649 262.61V263.535M223.649 262.61V263.535M223.649 263.535V264.46M223.649 263.535V264.46M223.649 264.46V265.384M223.649 264.46V265.384M223.649 265.384V266.308M223.649 265.384V266.308M223.649 266.308V267.232M223.649 266.308V267.232M223.649 267.232V268.155M223.649 267.232V268.155M223.649 268.155V269.078M223.649 268.155V269.078M223.649 269.078V270M223.649 269.078V270M223.649 270V270.922M223.649 270V270.922M223.649 270.922V271.843M223.649 270.922V271.843M223.649 271.843V272.764M223.649 271.843V272.764M223.649 272.764V273.684M223.649 272.764V273.684M223.649 273.684V274.604M223.649 273.684V274.604M223.649 274.604V275.523M223.649 274.604V275.523M223.649 275.523V276.441M223.649 275.523V276.441M223.649 276.441V277.359M223.649 276.441V277.359M223.649 277.359V278.277M223.649 277.359V278.277M223.649 278.277V279.194M223.649 278.277V279.194M223.649 279.194V280.11M223.649 279.194V280.11M223.649 280.11V281.025M223.649 280.11V281.025M223.649 281.025V281.94M223.649 281.025V281.94M223.649 281.94V282.855M223.649 281.94V282.855M223.649 282.855V283.768M223.649 282.855V283.768M223.649 283.768V284.681M223.649 283.768V284.681M223.649 284.681V285.593M223.649 284.681V285.593M223.649 285.593V286.505M223.649 285.593V286.505M223.649 286.505V287.416M223.649 286.505V287.416M223.649 287.416V288.326M223.649 287.416V288.326M223.649 288.326V289.235M223.649 288.326V289.235M223.649 289.235V290.144M223.649 289.235V290.144M223.649 290.144V291.051M223.649 290.144V291.051M223.649 291.051V291.958M223.649 291.051V291.958M223.649 291.958V292.865M223.649 291.958V292.865M223.649 292.865V293.77M223.649 292.865V293.77M223.649 293.77V294.675M223.649 293.77V294.675M223.649 294.675V295.578M223.649 294.675V295.578M223.649 295.578V296.481M223.649 295.578V296.481M223.649 296.481V297.383M223.649 296.481V297.383M223.649 297.383V298.284M223.649 297.383V298.284M223.649 298.284V299.184M223.649 298.284V299.184M223.649 299.184V300.084M223.649 299.184V300.084M223.649 300.084V300.982M223.649 300.084V300.982M223.649 300.982V301.879M223.649 300.982V301.879M223.649 301.879V302.776M223.649 301.879V302.776M223.649 302.776V303.671M223.649 302.776V303.671M223.649 303.671V304.566M223.649 303.671V304.566M223.649 304.566V305.459M223.649 304.566V305.459M223.649 305.459V306.352M223.649 305.459V306.352M223.649 306.352V307.243M223.649 306.352V307.243M223.649 307.243V308.134M223.649 307.243V308.134M223.649 308.134V309.023M223.649 308.134V309.023M223.649 309.023V309.912M223.649 309.023V309.912M223.649 309.912V310.799M223.649 309.912V310.799M223.649 310.799V311.685M223.649 310.799V311.685M223.649 311.685V312.57M223.649 311.685V312.57M223.649 312.57V313.454M223.649 312.57V313.454M223.649 313.454V314.337M223.649 313.454V314.337M223.649 314.337V315.219M223.649 314.337V315.219M223.649 315.219V316.1M223.649 315.219V316.1M223.649 316.1V316.979M223.649 316.1V316.979M223.649 316.979V317.857M223.649 316.979V317.857M223.649 317.857V318.734M223.649 317.857V318.734M223.649 318.734V319.61M223.649 318.734V319.61M223.649 319.61V320.485M223.649 319.61V320.485M223.649 320.485V321.358M223.649 320.485V321.358M223.649 321.358V322.23M223.649 321.358V322.23M223.649 322.23V323.101M223.649 322.23V323.101M223.649 323.101V323.971M223.649 323.101V323.971M223.649 323.971V324.839M223.649 323.971V324.839M223.649 324.839V325.706M223.649 324.839V325.706M223.649 325.706V326.572M223.649 325.706V326.572M223.649 326.572V327.436M223.649 326.572V327.436M223.649 327.436V328.3M223.649 327.436V328.3M223.649 328.3V329.161M223.649 328.3V329.161M223.649 329.161V330.022M223.649 329.161V330.022M223.649 330.022V330.881M223.649 330.022V330.881M223.649 330.881V331.738M223.649 330.881V331.738M223.649 331.738V332.594M223.649 331.738V332.594M223.649 332.594V333.449M223.649 332.594V333.449M223.649 333.449V334.302M223.649 333.449V334.302M223.649 334.302V335.154M223.649 334.302V335.154M223.649 335.154V336.005M223.649 335.154V336.005M223.649 336.005V336.854M223.649 336.005V336.854M223.649 336.854V337.701M223.649 336.854V337.701M223.649 337.701V338.547M223.649 337.701V338.547M223.649 338.547V339.392M223.649 338.547V339.392M223.649 339.392V340.235M223.649 339.392V340.235M223.649 340.235V341.076M223.649 340.235V341.076M223.649 341.076V341.916M223.649 341.076V341.916M223.649 341.916V342.754M223.649 341.916V342.754M223.649 342.754V343.591M223.649 342.754V343.591M223.649 343.591V344.426M223.649 343.591V344.426M223.649 344.426V345.259M223.649 344.426V345.259M223.649 345.259V346.091M223.649 345.259V346.091M223.649 346.091V346.921M223.649 346.091V346.921M223.649 346.921V347.75M223.649 346.921V347.75M223.649 347.75V348.577M223.649 347.75V348.577M223.649 348.577V349.402M223.649 348.577V349.402M223.649 349.402V350.226M223.649 349.402V350.226M223.649 350.226V351.048M223.649 350.226V351.048M223.649 351.048V351.868M223.649 351.048V351.868M223.649 351.868V352.686M223.649 351.868V352.686M223.649 352.686V353.503M223.649 352.686V353.503M223.649 353.503V354.318M223.649 353.503V354.318M223.649 354.318V355.131M223.649 354.318V355.131M223.649 355.131V355.942M223.649 355.131V355.942M223.649 355.942V356.752M223.649 355.942V356.752M223.649 356.752V357.56M223.649 356.752V357.56M223.649 357.56V358.366M223.649 357.56V358.366M223.649 358.366V359.17M223.649 358.366V359.17M223.649 359.17V359.972M223.649 359.17V359.972M223.649 359.972V360.773M223.649 359.972V360.773M223.649 360.773V361.571M223.649 360.773V361.571M223.649 361.571V362.368M223.649 361.571V362.368M223.649 362.368V363.163M223.649 362.368V363.163M223.649 363.163V363.955M223.649 363.163V363.955M223.649 363.955V364.746M223.649 363.955V364.746M223.649 364.746V365.535M223.649 364.746V365.535M223.649 365.535V366.322M223.649 365.535V366.322M223.649 366.322V367.107M223.649 366.322V367.107M223.649 367.107V367.89M223.649 367.107V367.89M223.649 367.89V368.671M223.649 367.89V368.671M223.649 368.671V369.451M223.649 368.671V369.451M223.649 369.451V370.228M223.649 369.451V370.228M223.649 370.228V371.003M223.649 370.228V371.003M223.649 371.003V371.776M223.649 371.003V371.776M223.649 371.776V372.546M223.649 371.776V372.546M223.649 372.546V373.315M223.649 372.546V373.315M223.649 373.315V374.082M223.649 373.315V374.082M223.649 374.082V374.847M223.649 374.082V374.847M223.649 374.847V375.609M223.649 374.847V375.609M223.649 375.609V376.37M223.649 375.609V376.37M223.649 376.37V377.128M223.649 376.37V377.128M223.649 377.128V377.884M223.649 377.128V377.884M223.649 377.884V378.638M223.649 377.884V378.638M223.649 378.638V379.39M223.649 378.638V379.39M223.649 379.39V380.139M223.649 379.39V380.139M223.649 380.139V380.886M223.649 380.139V380.886M223.649 380.886V381.632M223.649 380.886V381.632M223.649 381.632V382.374M223.649 381.632V382.374M223.649 382.374V383.115M223.649 382.374V383.115M223.649 383.115V383.853M223.649 383.115V383.853M223.649 383.853V384.59M223.649 383.853V384.59M223.649 384.59V385.323M223.649 384.59V385.323M223.649 385.323V386.055M223.649 385.323V386.055M223.649 386.055V386.784M223.649 386.055V386.784M223.649 386.784V387.511M223.649 386.784V387.511M223.649 387.511V388.235M223.649 387.511V388.235M223.649 388.235V388.958M223.649 388.235V388.958M223.649 388.958V389.677M223.649 388.958V389.677M223.649 389.677V390.395M223.649 389.677V390.395M223.649 390.395V391.11M223.649 390.395V391.11M223.649 391.11V391.822M223.649 391.11V391.822M223.649 391.822V392.533M223.649 391.822V392.533M223.649 392.533V393.24M223.649 392.533V393.24M223.649 393.24V393.946M223.649 393.24V393.946M223.649 393.946V394.648M223.649 393.946V394.648M223.649 394.648V395.349M223.649 394.648V395.349M223.649 395.349V396.047M223.649 395.349V396.047M223.649 396.047V396.742M223.649 396.047V396.742M223.649 396.742V397.435M223.649 396.742V397.435M223.649 397.435V398.125M223.649 397.435V398.125M223.649 398.125V398.813M223.649 398.125V398.813M223.649 398.813V399.498M223.649 398.813V399.498M223.649 399.498V400.181M223.649 399.498V400.181M223.649 400.181V400.861M223.649 400.181V400.861M223.649 400.861V401.538M223.649 400.861V401.538M223.649 401.538V402.213M223.649 401.538V402.213M223.649 402.213V402.885M223.649 402.213V402.885M223.649 402.885V403.555M223.649 402.885V403.555M223.649 403.555V404.222M223.649 403.555V404.222M223.649 404.222V404.886M223.649 404.222V404.886M223.649 404.886V405.548M223.649 404.886V405.548M223.649 405.548V406.207M223.649 405.548V406.207M223.649 406.207V406.863M223.649 406.207V406.863M223.649 406.863V407.516M223.649 406.863V407.516M223.649 407.516V408.167M223.649 407.516V408.167M223.649 408.167V408.815M223.649 408.167V408.815M223.649 408.815V409.46M223.649 408.815V409.46M223.649 409.46V410.103M223.649 409.46V410.103M223.649 410.103V410.742M223.649 410.103V410.742M223.649 410.742V411.379M223.649 410.742V411.379M223.649 411.379V412.013M223.649 411.379V412.013M223.649 412.013V412.645M223.649 412.013V412.645M223.649 412.645V413.273M223.649 412.645V413.273M223.649 413.273V413.899M223.649 413.273V413.899M223.649 413.899V414.521M223.649 413.899V414.521M223.649 414.521V415.141M223.649 414.521V415.141M223.649 415.141V415.758M223.649 415.141V415.758M223.649 415.758V416.372M223.649 415.758V416.372M223.649 416.372V416.983M223.649 416.372V416.983M223.649 416.983V417.591M223.649 416.983V417.591M223.649 417.591V418.197M223.649 417.591V418.197M223.649 418.197V418.799M223.649 418.197V418.799M223.649 418.799V419.398M223.649 418.799V419.398M223.649 419.398V419.994M223.649 419.398V419.994M223.649 419.994V420.588M223.649 419.994V420.588M223.649 420.588V421.178M223.649 420.588V421.178M223.649 421.178V421.765M223.649 421.178V421.765M223.649 421.765V422.35M223.649 421.765V422.35M223.649 422.35V422.931M223.649 422.35V422.931M223.649 422.931V423.509M223.649 422.931V423.509M223.649 423.509V424.084M223.649 423.509V424.084M223.649 424.084V424.656M223.649 424.084V424.656M223.649 424.656V425.225M223.649 424.656V425.225M223.649 425.225V425.79V425.225Z" stroke="#37383C"/>
<path d="M229.783 102.049L229.783 102.05C229.865 102.131 229.912 102.244 229.912 102.365V102.394V102.423V102.453V102.484V102.514V102.545V102.577V102.609V102.641V102.674V102.707V102.74V102.774V102.808V102.843V102.878V102.913V102.949V102.985V103.021V103.058V103.095V103.133V103.171V103.209V103.248V103.287V103.326V103.366V103.406V103.447V103.488V103.529V103.571V103.612V103.655V103.697V103.74V103.784V103.827V103.871V103.916V103.96V104.005V104.051V104.097V104.143V104.189V104.236V104.283V104.33V104.378V104.426V104.474V104.523V104.572V104.621V104.671V104.721V104.771V104.821V104.872V104.923V104.975V105.027V105.079V105.131V105.184V105.237V105.29V105.343V105.397V105.452V105.506V105.561V105.616V105.671V105.727V105.782V105.839V105.895V105.952V106.009V106.066V106.124V106.181V106.239V106.298V106.356V106.415V106.474V106.534V106.593V106.653V106.714V106.774V106.835V106.896V106.957V107.018V107.08V107.142V107.204V107.267V107.329V107.392V107.455V107.519V107.582V107.646V107.71V107.774V107.839V107.904V107.969V108.034V108.099V108.165V108.231V108.297V108.363V108.43V108.497V108.564V108.631V108.698V108.766V108.833V108.901V108.97V109.038V109.107V109.175V109.244V109.314V109.383V109.452V109.522V109.592V109.662V109.733V109.803V109.874V109.944V110.016V110.087V110.158V110.23V110.301V110.373V110.445V110.517V110.59V110.662V110.735V110.808V110.881V110.954V111.028V111.101V111.175V111.248V111.322V111.397V111.471V111.545V111.62V111.694V111.769V111.844V111.919V111.994V112.07V112.145V112.221V112.297V112.372V112.448V112.525V112.601V112.677V112.754V112.83V112.907V112.984V113.061V113.138V113.215V113.292V113.37V113.447V113.525V113.602V113.68V113.758V113.836V113.914V113.992V114.071V114.149V114.227V114.306V114.385V114.463V114.542V114.621V114.7V114.779V114.858V114.937V115.016V115.096V115.175V115.255V115.334V115.414V115.493V115.573V115.653V115.733V115.812V115.892V115.972V116.052V116.133V116.213V116.293V116.373V116.453V116.534V116.614V116.695V116.775V116.856V116.936V117.017V117.097V117.178V117.258V117.339V117.42V117.501V117.581V117.662V117.743V117.824V117.904V117.985V118.066V118.147V118.228V118.309V118.39V118.471V118.551V118.632V118.713V118.794V118.875V118.956V119.037V119.118V119.198V119.279V119.36V119.441V119.522V119.603V119.683V119.764V119.845V119.925V120.006V120.087V120.167V120.248V120.329V120.409V120.49V120.57V120.65V120.731V120.811V120.891V120.972V121.052V121.132V121.212V121.292V121.372V121.452V121.532V121.612V121.692V121.771V121.851V121.931V122.01V122.09V122.169V122.248V122.327V122.407V122.486V122.565V122.644V122.723V122.801V122.88V122.959V123.037V123.116V123.194V123.272V123.35V123.429V123.506V123.584V123.662V123.74V123.817V123.895V123.972V124.05V124.127V124.204V124.281V124.358V124.434V124.511V124.587V124.664V124.74V124.816V124.892V124.968V125.044V125.119V125.195V125.27V125.345V125.42V125.495V125.57V125.645V125.719V125.794V125.868V125.942V126.016V126.09V126.164V126.237V126.31V126.384V126.457V126.529V126.602V126.675V126.747V126.819V126.891V126.963V127.035V127.107V127.178V127.249V127.32V127.391V127.462V127.532V127.602V127.672V127.742V127.812V127.882V127.951V128.02V128.089V128.158V128.227V128.295V128.363V128.431V128.499V128.566V128.634V128.701V128.768V128.835V128.901V128.968V129.034V129.1V129.165V129.231V129.296V129.361V129.426V129.49V129.554V129.619V129.682V129.746V129.809V129.872V129.935V129.998V130.06V130.123V130.185V130.246V130.308V130.369V130.43V130.491V130.551V130.611V130.671V130.731V130.79V130.849V130.908V130.967V131.025V131.083V131.141V131.199V131.256V131.313V131.37V131.426V131.482V131.538V131.594V131.649V131.704V131.759V131.813V131.867V131.921V131.975V132.028V132.081V132.134V132.186V132.238V132.29V132.341V132.392V132.443V132.494V132.544V132.594V132.644V132.693V132.742V132.79V132.839V132.887V132.935V132.982V133.029V133.076V133.122V133.168V133.214V133.259V133.304V133.349V133.393V133.437V133.481V133.524V133.567V133.61V133.652V133.694V133.736V133.777V133.818V133.858V133.898V133.938V133.978V134.017V134.055V134.094V134.132V134.169V134.207V134.243V134.28V134.316V134.352V134.387V134.422V134.457V134.491V134.525V134.558V134.591V134.624V134.656V134.688V134.719V134.75V134.781V134.811V134.841V134.871V134.9C229.912 135.02 229.865 135.133 229.783 135.215L229.783 135.215C229.7 135.299 229.589 135.345 229.475 135.345H229.473H229.47H229.468H229.465H229.463H229.461H229.458H229.456H229.454H229.451H229.449H229.447H229.444H229.442H229.439H229.437H229.435H229.432H229.43H229.428H229.425H229.423H229.421H229.418H229.416H229.413H229.411H229.409H229.406H229.404H229.402H229.399H229.397H229.395H229.392H229.39H229.388H229.385H229.383H229.381H229.378H229.376H229.374H229.371H229.369H229.367H229.364H229.362H229.36H229.357H229.355H229.353H229.35H229.348H229.346H229.343H229.341H229.339H229.336H229.334H229.332H229.329H229.327H229.325H229.322H229.32H229.318H229.315H229.313H229.311H229.309H229.306H229.304H229.302H229.299H229.297H229.295H229.293H229.29H229.288H229.286H229.283H229.281H229.279H229.277H229.274H229.272H229.27H229.267H229.265H229.263H229.261H229.258H229.256H229.254H229.252H229.249H229.247H229.245H229.243H229.24H229.238H229.236H229.234H229.231H229.229H229.227H229.225H229.223H229.22H229.218H229.216H229.214H229.211H229.209H229.207H229.205H229.203H229.2H229.198H229.196H229.194H229.192H229.189H229.187H229.187V101.92H229.187H229.189H229.192H229.194H229.196H229.198H229.2H229.203H229.205H229.207H229.209H229.211H229.214H229.216H229.218H229.22H229.223H229.225H229.227H229.229H229.231H229.234H229.236H229.238H229.24H229.243H229.245H229.247H229.249H229.252H229.254H229.256H229.258H229.261H229.263H229.265H229.267H229.27H229.272H229.274H229.277H229.279H229.281H229.283H229.286H229.288H229.29H229.293H229.295H229.297H229.299H229.302H229.304H229.306H229.309H229.311H229.313H229.315H229.318H229.32H229.322H229.325H229.327H229.329H229.332H229.334H229.336H229.339H229.341H229.343H229.346H229.348H229.35H229.353H229.355H229.357H229.36H229.362H229.364H229.367H229.369H229.371H229.374H229.376H229.378H229.381H229.383H229.385H229.388H229.39H229.392H229.395H229.397H229.399H229.402H229.404H229.406H229.409H229.411H229.413H229.416H229.418H229.421H229.423H229.425H229.428H229.43H229.432H229.435H229.437H229.439H229.442H229.444H229.447H229.449H229.451H229.454H229.456H229.458H229.461H229.463H229.465H229.468H229.47H229.473H229.475C229.589 101.92 229.7 101.966 229.783 102.049Z" stroke="#37383C"/>
<path d="M1.40036 79.0246H1.40004H1.39785H1.39565H1.39345H1.39125H1.38905H1.38684H1.38463H1.38242H1.38021H1.37799H1.37577H1.37355H1.37133H1.3691H1.36688H1.36464H1.36241H1.36018H1.35794H1.3557H1.35346H1.35121H1.34897H1.34672H1.34447H1.34221H1.33996H1.3377H1.33544H1.33318H1.33091H1.32865H1.32638H1.32411H1.32184H1.31956H1.31728H1.31501H1.31272H1.31044H1.30816H1.30587H1.30358H1.30129H1.299H1.2967H1.29441H1.29211H1.28981H1.28751H1.2852H1.2829H1.28059H1.27828H1.27597H1.27366H1.27134H1.26903H1.26671H1.26439H1.26207H1.25975H1.25742H1.2551H1.25277H1.25044H1.24811H1.24578H1.24344H1.24111H1.23877H1.23643H1.23409H1.23175H1.22941H1.22707H1.22472H1.22237H1.22003H1.21768H1.21532H1.21297H1.21062H1.20826H1.20591H1.20355H1.20119H1.19883H1.19647H1.19411H1.19174H1.18938H1.18701H1.18465H1.18228H1.17991H1.17754H1.17517H1.17279H1.17042H1.16804H1.16567H1.16329H1.16091H1.15854H1.15616H1.15378H1.15139H1.14901H1.14663H1.14424H1.14186H1.13947H1.13709H1.1347H1.13231H1.12992H1.12753H1.12514H1.12275H1.12036H1.11796H1.11557H1.11318H1.11078C0.983291 79.0246 0.860428 78.9737 0.769095 78.8816C0.677617 78.7893 0.625488 78.6634 0.625488 78.5309V78.512V78.493V78.4738V78.4545V78.435V78.4154V78.3956V78.3756V78.3555V78.3353V78.3149V78.2944V78.2737V78.2528V78.2318V78.2107V78.1894V78.168V78.1464V78.1247V78.1028V78.0808V78.0587V78.0364V78.0139V77.9914V77.9686V77.9458V77.9228V77.8996V77.8764V77.853V77.8294V77.8057V77.7819V77.7579V77.7339V77.7096V77.6853V77.6608V77.6362V77.6114V77.5865V77.5615V77.5364V77.5111V77.4857V77.4602V77.4345V77.4087V77.3828V77.3568V77.3306V77.3043V77.2779V77.2514V77.2247V77.198V77.1711V77.144V77.1169V77.0897V77.0623V77.0348V77.0072V76.9795V76.9516V76.9237V76.8956V76.8674V76.8391V76.8107V76.7821V76.7535V76.7248V76.6959V76.6669V76.6378V76.6087V76.5794V76.55V76.5204V76.4908V76.4611V76.4313V76.4013V76.3713V76.3412V76.3109V76.2806V76.2501V76.2196V76.1889V76.1582V76.1273V76.0964V76.0653V76.0342V76.003V75.9716V75.9402V75.9087V75.8771V75.8453V75.8135V75.7816V75.7497V75.7176V75.6854V75.6531V75.6208V75.5884V75.5558V75.5232V75.4905V75.4577V75.4249V75.3919V75.3589V75.3257V75.2925V75.2592V75.2259V75.1924V75.1589V75.1253V75.0916V75.0578V75.0239V74.99V74.956V74.9219V74.8878V74.8535V74.8192V74.7848V74.7504V74.7158V74.6812V74.6466V74.6118V74.577V74.5421V74.5072V74.4722V74.4371V74.4019V74.3667V74.3314V74.296V74.2606V74.2251V74.1896V74.154V74.1183V74.0826V74.0468V74.0109V73.975V73.939V73.903V73.8669V73.8308V73.7946V73.7583V73.722V73.6856V73.6492V73.6127V73.5762V73.5396V73.5029V73.4662V73.4295V73.3927V73.3559V73.319V73.282V73.245V73.208V73.1709V73.1338V73.0966V73.0594V73.0222V72.9849V72.9475V72.9101V72.8727V72.8352V72.7977V72.7602V72.7226V72.6849V72.6473V72.6096V72.5718V72.5341V72.4962V72.4584V72.4205V72.3826V72.3447V72.3067V72.2687V72.2306V72.1926V72.1544V72.1163V72.0782V72.04V72.0017V71.9635V71.9252V71.8869V71.8486V71.8103V71.7719V71.7335V71.6951V71.6567V71.6182V71.5797V71.5412V71.5027V71.4642V71.4256V71.387V71.3484V71.3098V71.2712V71.2326V71.1939V71.1552V71.1166V71.0779V71.0392V71.0004V70.9617V70.923V70.8842V70.8455V70.8067V70.7679V70.7291V70.6904V70.6516V70.6128V70.574V70.5351V70.4963V70.4575V70.4187V70.3799V70.3411V70.3022V70.2634V70.2246V70.1858V70.1469V70.1081V70.0693V70.0305V69.9917V69.9529V69.9141V69.8753V69.8365V69.7978V69.759V69.7202V69.6815V69.6427V69.604V69.5653V69.5266V69.4879V69.4492V69.4105V69.3719V69.3333V69.2946V69.256V69.2174V69.1789V69.1403V69.1018V69.0632V69.0247V68.9863V68.9478V68.9094V68.871V68.8326V68.7942V68.7558V68.7175V68.6792V68.641V68.6027V68.5645V68.5263V68.4881V68.45V68.4119V68.3738V68.3358V68.2978V68.2598V68.2219V68.1839V68.1461V68.1082V68.0704V68.0326V67.9949V67.9572V67.9195V67.8819V67.8443V67.8067V67.7692V67.7318V67.6943V67.6569V67.6196V67.5823V67.545V67.5078V67.4707V67.4335V67.3964V67.3594V67.3224V67.2855V67.2486V67.2118V67.175V67.1382V67.1015V67.0649V67.0283V66.9918V66.9553V66.9189V66.8825V66.8462V66.8099V66.7737V66.7376V66.7015V66.6654V66.6295V66.5935V66.5577V66.5219V66.4862V66.4505V66.4149V66.3793V66.3438V66.3084V66.2731V66.2378V66.2026V66.1674V66.1323V66.0973V66.0623V66.0274V65.9926V65.9579V65.9232V65.8886V65.8541V65.8196V65.7852V65.7509V65.7167V65.6825V65.6485V65.6145V65.5805V65.5467V65.5129V65.4792V65.4456V65.4121V65.3786V65.3452V65.3119V65.2787V65.2456V65.2126V65.1796V65.1467V65.1139V65.0812V65.0486V65.0161V64.9837V64.9513V64.9191V64.8869V64.8548V64.8228V64.7909V64.7591V64.7274V64.6958V64.6643V64.6328V64.6015V64.5703V64.5391V64.5081V64.4771V64.4463V64.4155V64.3849V64.3543V64.3239V64.2935V64.2633V64.2332V64.2031V64.1732V64.1434V64.1136V64.084V64.0545V64.0251V63.9958V63.9666V63.9375V63.9086V63.8797V63.851V63.8223V63.7938V63.7654V63.7371V63.7089V63.6808V63.6529V63.625V63.5973V63.5697V63.5422V63.5148V63.4876V63.4604V63.4334V63.4065V63.3797V63.3531V63.3265V63.3001V63.2739V63.2477V63.2217V63.1957V63.17V63.1443V63.1188V63.0934V63.0681V63.043V63.0179V62.9931V62.9683V62.9437V62.9192V62.8948V62.8706V62.8465V62.8226V62.7987V62.7751V62.7515V62.7281V62.7048V62.6817V62.6587V62.6358V62.6131V62.5905V62.5681V62.5458V62.5236V62.5016V62.4798V62.4581V62.4365V62.415V62.3938V62.3726V62.3516V62.3308V62.3101V62.2896V62.2692V62.2489V62.2288V62.2089V62.1891V62.1695V62.15V62.1307V62.1115V62.0925V62.0736C0.625488 61.9411 0.677616 61.8152 0.769095 61.7229C0.860429 61.6308 0.983292 61.5798 1.11078 61.5798H1.11318H1.11557H1.11796H1.12036H1.12275H1.12514H1.12753H1.12992H1.13231H1.1347H1.13709H1.13947H1.14186H1.14424H1.14663H1.14901H1.15139H1.15378H1.15616H1.15854H1.16091H1.16329H1.16567H1.16804H1.17042H1.17279H1.17517H1.17754H1.17991H1.18228H1.18465H1.18701H1.18938H1.19174H1.19411H1.19647H1.19883H1.20119H1.20355H1.20591H1.20826H1.21062H1.21297H1.21532H1.21768H1.22003H1.22237H1.22472H1.22707H1.22941H1.23175H1.23409H1.23643H1.23877H1.24111H1.24344H1.24578H1.24811H1.25044H1.25277H1.2551H1.25742H1.25975H1.26207H1.26439H1.26671H1.26903H1.27134H1.27366H1.27597H1.27828H1.28059H1.2829H1.2852H1.28751H1.28981H1.29211H1.29441H1.2967H1.299H1.30129H1.30358H1.30587H1.30816H1.31044H1.31272H1.31501H1.31728H1.31956H1.32184H1.32411H1.32638H1.32865H1.33091H1.33318H1.33544H1.3377H1.33996H1.34221H1.34447H1.34672H1.34897H1.35121H1.35346H1.3557H1.35794H1.36018H1.36241H1.36464H1.36688H1.3691H1.37133H1.37355H1.37577H1.37799H1.38021H1.38242H1.38463H1.38684H1.38905H1.39125H1.39345H1.39565H1.39785H1.40004H1.40036V79.0246Z" stroke="#37383C"/>
<path d="M1.40036 135.345H1.40004H1.39785H1.39565H1.39345H1.39125H1.38905H1.38684H1.38463H1.38242H1.38021H1.37799H1.37577H1.37355H1.37133H1.3691H1.36688H1.36464H1.36241H1.36018H1.35794H1.3557H1.35346H1.35121H1.34897H1.34672H1.34447H1.34221H1.33996H1.3377H1.33544H1.33318H1.33091H1.32865H1.32638H1.32411H1.32184H1.31956H1.31728H1.31501H1.31272H1.31044H1.30816H1.30587H1.30358H1.30129H1.299H1.2967H1.29441H1.29211H1.28981H1.28751H1.2852H1.2829H1.28059H1.27828H1.27597H1.27366H1.27134H1.26903H1.26671H1.26439H1.26207H1.25975H1.25742H1.2551H1.25277H1.25044H1.24811H1.24578H1.24344H1.24111H1.23877H1.23643H1.23409H1.23175H1.22941H1.22707H1.22472H1.22237H1.22003H1.21768H1.21532H1.21297H1.21062H1.20826H1.20591H1.20355H1.20119H1.19883H1.19647H1.19411H1.19174H1.18938H1.18701H1.18465H1.18228H1.17991H1.17754H1.17517H1.17279H1.17042H1.16804H1.16567H1.16329H1.16091H1.15854H1.15616H1.15378H1.15139H1.14901H1.14663H1.14424H1.14186H1.13947H1.13709H1.1347H1.13231H1.12992H1.12753H1.12514H1.12275H1.12036H1.11796H1.11557H1.11318H1.11078C0.983427 135.345 0.860477 135.294 0.769013 135.201C0.677614 135.109 0.625488 134.983 0.625488 134.851V134.821V134.791V134.761V134.73V134.699V134.668V134.636V134.604V134.571V134.538V134.504V134.471V134.436V134.402V134.367V134.332V134.296V134.26V134.223V134.186V134.149V134.112V134.074V134.036V133.997V133.958V133.919V133.879V133.839V133.798V133.758V133.716V133.675V133.633V133.591V133.548V133.506V133.462V133.419V133.375V133.331V133.286V133.241V133.196V133.151V133.105V133.059V133.012V132.965V132.918V132.871V132.823V132.775V132.726V132.678V132.628V132.579V132.529V132.479V132.429V132.378V132.328V132.276V132.225V132.173V132.121V132.069V132.016V131.963V131.91V131.856V131.802V131.748V131.694V131.639V131.584V131.529V131.473V131.417V131.361V131.305V131.248V131.191V131.134V131.076V131.019V130.961V130.902V130.844V130.785V130.726V130.667V130.607V130.547V130.487V130.427V130.367V130.306V130.245V130.183V130.122V130.06V129.998V129.936V129.873V129.811V129.748V129.684V129.621V129.557V129.493V129.429V129.365V129.301V129.236V129.171V129.106V129.04V128.974V128.909V128.843V128.776V128.71V128.643V128.576V128.509V128.442V128.374V128.307V128.239V128.171V128.102V128.034V127.965V127.896V127.827V127.758V127.689V127.619V127.549V127.479V127.409V127.339V127.268V127.197V127.127V127.056V126.984V126.913V126.841V126.77V126.698V126.626V126.554V126.481V126.409V126.336V126.263V126.19V126.117V126.044V125.971V125.897V125.823V125.75V125.676V125.601V125.527V125.453V125.378V125.304V125.229V125.154V125.079V125.004V124.928V124.853V124.777V124.702V124.626V124.55V124.474V124.398V124.321V124.245V124.169V124.092V124.015V123.938V123.862V123.784V123.707V123.63V123.553V123.475V123.398V123.32V123.243V123.165V123.087V123.009V122.931V122.853V122.775V122.696V122.618V122.539V122.461V122.382V122.304V122.225V122.146V122.067V121.988V121.909V121.83V121.751V121.672V121.593V121.513V121.434V121.354V121.275V121.195V121.116V121.036V120.956V120.877V120.797V120.717V120.637V120.557V120.477V120.397V120.317V120.237V120.157V120.077V119.997V119.917V119.837V119.757V119.676V119.596V119.516V119.436V119.355V119.275V119.195V119.114V119.034V118.954V118.873V118.793V118.713V118.632V118.552V118.472V118.391V118.311V118.231V118.15V118.07V117.99V117.909V117.829V117.749V117.668V117.588V117.508V117.428V117.348V117.267V117.187V117.107V117.027V116.947V116.867V116.787V116.707V116.627V116.547V116.468V116.388V116.308V116.228V116.149V116.069V115.99V115.91V115.831V115.751V115.672V115.593V115.514V115.434V115.355V115.276V115.197V115.119V115.04V114.961V114.882V114.804V114.725V114.647V114.568V114.49V114.412V114.334V114.256V114.178V114.1V114.022V113.944V113.867V113.789V113.712V113.634V113.557V113.48V113.403V113.326V113.249V113.173V113.096V113.02V112.943V112.867V112.791V112.715V112.639V112.563V112.487V112.412V112.336V112.261V112.186V112.111V112.036V111.961V111.886V111.812V111.737V111.663V111.589V111.515V111.441V111.367V111.294V111.22V111.147V111.074V111.001V110.928V110.856V110.783V110.711V110.639V110.567V110.495V110.423V110.352V110.28V110.209V110.138V110.067V109.996V109.926V109.856V109.785V109.715V109.646V109.576V109.507V109.437V109.368V109.299V109.231V109.162V109.094V109.026V108.958V108.89V108.823V108.755V108.688V108.621V108.555V108.488V108.422V108.356V108.29V108.224V108.159V108.094V108.029V107.964V107.9V107.835V107.771V107.707V107.644V107.58V107.517V107.454V107.391V107.329V107.266V107.204V107.143V107.081V107.02V106.959V106.898V106.837V106.777V106.717V106.657V106.598V106.538V106.479V106.421V106.362V106.304V106.246V106.188V106.131V106.073V106.017V105.96V105.904V105.847V105.792V105.736V105.681V105.626V105.571V105.517V105.462V105.409V105.355V105.302V105.249V105.196V105.144V105.092V105.04V104.988V104.937V104.886V104.835V104.785V104.735V104.686V104.636V104.587V104.538V104.49V104.442V104.394V104.346V104.299V104.252V104.206V104.16V104.114V104.068V104.023V103.978V103.934V103.89V103.846V103.802V103.759V103.716V103.674V103.631V103.59V103.548V103.507V103.466V103.426V103.386V103.346V103.307V103.268V103.229V103.191V103.153V103.115V103.078V103.041V103.005V102.969V102.933V102.898V102.863V102.828V102.794V102.76V102.727V102.694V102.661V102.629V102.597V102.565V102.534V102.503V102.473V102.443V102.414C0.625488 102.281 0.677614 102.155 0.769013 102.063C0.860478 101.971 0.983428 101.92 1.11078 101.92H1.11318H1.11557H1.11796H1.12036H1.12275H1.12514H1.12753H1.12992H1.13231H1.1347H1.13709H1.13947H1.14186H1.14424H1.14663H1.14901H1.15139H1.15378H1.15616H1.15854H1.16091H1.16329H1.16567H1.16804H1.17042H1.17279H1.17517H1.17754H1.17991H1.18228H1.18465H1.18701H1.18938H1.19174H1.19411H1.19647H1.19883H1.20119H1.20355H1.20591H1.20826H1.21062H1.21297H1.21532H1.21768H1.22003H1.22237H1.22472H1.22707H1.22941H1.23175H1.23409H1.23643H1.23877H1.24111H1.24344H1.24578H1.24811H1.25044H1.25277H1.2551H1.25742H1.25975H1.26207H1.26439H1.26671H1.26903H1.27134H1.27366H1.27597H1.27828H1.28059H1.2829H1.2852H1.28751H1.28981H1.29211H1.29441H1.2967H1.299H1.30129H1.30358H1.30587H1.30816H1.31044H1.31272H1.31501H1.31728H1.31956H1.32184H1.32411H1.32638H1.32865H1.33091H1.33318H1.33544H1.3377H1.33996H1.34221H1.34447H1.34672H1.34897H1.35121H1.35346H1.3557H1.35794H1.36018H1.36241H1.36464H1.36688H1.3691H1.37133H1.37355H1.37577H1.37799H1.38021H1.38242H1.38463H1.38684H1.38905H1.39125H1.39345H1.39565H1.39785H1.40004H1.40036V135.345Z" stroke="#37383C"/>
<path d="M1.40036 178.323H1.40004H1.39785H1.39565H1.39345H1.39125H1.38905H1.38684H1.38463H1.38242H1.38021H1.37799H1.37577H1.37355H1.37133H1.3691H1.36688H1.36464H1.36241H1.36018H1.35794H1.3557H1.35346H1.35121H1.34897H1.34672H1.34447H1.34221H1.33996H1.3377H1.33544H1.33318H1.33091H1.32865H1.32638H1.32411H1.32184H1.31956H1.31728H1.31501H1.31272H1.31044H1.30816H1.30587H1.30358H1.30129H1.299H1.2967H1.29441H1.29211H1.28981H1.28751H1.2852H1.2829H1.28059H1.27828H1.27597H1.27366H1.27134H1.26903H1.26671H1.26439H1.26207H1.25975H1.25742H1.2551H1.25277H1.25044H1.24811H1.24578H1.24344H1.24111H1.23877H1.23643H1.23409H1.23175H1.22941H1.22707H1.22472H1.22237H1.22003H1.21768H1.21532H1.21297H1.21062H1.20826H1.20591H1.20355H1.20119H1.19883H1.19647H1.19411H1.19174H1.18938H1.18701H1.18465H1.18228H1.17991H1.17754H1.17517H1.17279H1.17042H1.16804H1.16567H1.16329H1.16091H1.15854H1.15616H1.15378H1.15139H1.14901H1.14663H1.14424H1.14186H1.13947H1.13709H1.1347H1.13231H1.12992H1.12753H1.12514H1.12275H1.12036H1.11796H1.11557H1.11318H1.11078C0.983427 178.323 0.860477 178.272 0.769013 178.18C0.677614 178.088 0.625488 177.962 0.625488 177.829V177.8V177.77V177.74V177.709V177.678V177.646V177.614V177.582V177.549V177.516V177.483V177.449V177.415V177.38V177.345V177.31V177.274V177.238V177.202V177.165V177.128V177.09V177.052V177.014V176.975V176.936V176.897V176.857V176.817V176.777V176.736V176.695V176.654V176.612V176.57V176.527V176.484V176.441V176.397V176.354V176.309V176.265V176.22V176.175V176.129V176.083V176.037V175.991V175.944V175.897V175.849V175.801V175.753V175.705V175.656V175.607V175.558V175.508V175.458V175.408V175.357V175.306V175.255V175.203V175.152V175.099V175.047V174.994V174.941V174.888V174.835V174.781V174.726V174.672V174.617V174.562V174.507V174.452V174.396V174.34V174.283V174.227V174.17V174.112V174.055V173.997V173.939V173.881V173.822V173.764V173.705V173.645V173.586V173.526V173.466V173.406V173.345V173.284V173.223V173.162V173.1V173.039V172.977V172.914V172.852V172.789V172.726V172.663V172.6V172.536V172.472V172.408V172.344V172.279V172.214V172.149V172.084V172.019V171.953V171.887V171.821V171.755V171.688V171.622V171.555V171.488V171.42V171.353V171.285V171.217V171.149V171.081V171.012V170.944V170.875V170.806V170.736V170.667V170.597V170.528V170.458V170.387V170.317V170.247V170.176V170.105V170.034V169.963V169.892V169.82V169.748V169.676V169.604V169.532V169.46V169.387V169.315V169.242V169.169V169.096V169.023V168.949V168.876V168.802V168.728V168.654V168.58V168.506V168.431V168.357V168.282V168.207V168.132V168.057V167.982V167.907V167.831V167.756V167.68V167.604V167.528V167.452V167.376V167.3V167.224V167.147V167.07V166.994V166.917V166.84V166.763V166.686V166.609V166.531V166.454V166.376V166.299V166.221V166.143V166.065V165.987V165.909V165.831V165.753V165.675V165.596V165.518V165.439V165.361V165.282V165.203V165.125V165.046V164.967V164.888V164.809V164.729V164.65V164.571V164.492V164.412V164.333V164.253V164.174V164.094V164.015V163.935V163.855V163.775V163.696V163.616V163.536V163.456V163.376V163.296V163.216V163.136V163.056V162.976V162.896V162.815V162.735V162.655V162.575V162.494V162.414V162.334V162.254V162.173V162.093V162.013V161.932V161.852V161.772V161.691V161.611V161.53V161.45V161.37V161.289V161.209V161.129V161.048V160.968V160.888V160.807V160.727V160.647V160.567V160.486V160.406V160.326V160.246V160.166V160.086V160.006V159.926V159.846V159.766V159.686V159.606V159.526V159.446V159.366V159.287V159.207V159.127V159.048V158.968V158.889V158.809V158.73V158.651V158.571V158.492V158.413V158.334V158.255V158.176V158.097V158.018V157.939V157.861V157.782V157.704V157.625V157.547V157.469V157.39V157.312V157.234V157.156V157.078V157.001V156.923V156.845V156.768V156.69V156.613V156.536V156.459V156.382V156.305V156.228V156.151V156.075V155.998V155.922V155.845V155.769V155.693V155.617V155.541V155.466V155.39V155.315V155.239V155.164V155.089V155.014V154.939V154.865V154.79V154.716V154.642V154.567V154.494V154.42V154.346V154.272V154.199V154.126V154.053V153.98V153.907V153.834V153.762V153.689V153.617V153.545V153.473V153.402V153.33V153.259V153.188V153.116V153.046V152.975V152.904V152.834V152.764V152.694V152.624V152.555V152.485V152.416V152.347V152.278V152.209V152.141V152.073V152.004V151.937V151.869V151.801V151.734V151.667V151.6V151.533V151.467V151.401V151.334V151.269V151.203V151.138V151.072V151.007V150.943V150.878V150.814V150.75V150.686V150.622V150.559V150.495V150.432V150.37V150.307V150.245V150.183V150.121V150.06V149.998V149.937V149.877V149.816V149.756V149.696V149.636V149.576V149.517V149.458V149.399V149.341V149.282V149.224V149.167V149.109V149.052V148.995V148.938V148.882V148.826V148.77V148.715V148.659V148.604V148.55V148.495V148.441V148.387V148.334V148.28V148.227V148.175V148.122V148.07V148.018V147.967V147.916V147.865V147.814V147.764V147.714V147.664V147.615V147.566V147.517V147.468V147.42V147.372V147.325V147.278V147.231V147.184V147.138V147.092V147.047V147.002V146.957V146.912V146.868V146.824V146.781V146.737V146.695V146.652V146.61V146.568V146.527V146.486V146.445V146.404V146.364V146.325V146.285V146.246V146.208V146.169V146.131V146.094V146.057V146.02V145.983V145.947V145.912V145.876V145.841V145.807V145.773V145.739V145.705V145.672V145.64V145.607V145.575V145.544V145.513V145.482V145.452V145.422V145.392C0.625488 145.26 0.677614 145.134 0.769013 145.042C0.860478 144.949 0.983428 144.898 1.11078 144.898H1.11318H1.11557H1.11796H1.12036H1.12275H1.12514H1.12753H1.12992H1.13231H1.1347H1.13709H1.13947H1.14186H1.14424H1.14663H1.14901H1.15139H1.15378H1.15616H1.15854H1.16091H1.16329H1.16567H1.16804H1.17042H1.17279H1.17517H1.17754H1.17991H1.18228H1.18465H1.18701H1.18938H1.19174H1.19411H1.19647H1.19883H1.20119H1.20355H1.20591H1.20826H1.21062H1.21297H1.21532H1.21768H1.22003H1.22237H1.22472H1.22707H1.22941H1.23175H1.23409H1.23643H1.23877H1.24111H1.24344H1.24578H1.24811H1.25044H1.25277H1.2551H1.25742H1.25975H1.26207H1.26439H1.26671H1.26903H1.27134H1.27366H1.27597H1.27828H1.28059H1.2829H1.2852H1.28751H1.28981H1.29211H1.29441H1.2967H1.299H1.30129H1.30358H1.30587H1.30816H1.31044H1.31272H1.31501H1.31728H1.31956H1.32184H1.32411H1.32638H1.32865H1.33091H1.33318H1.33544H1.3377H1.33996H1.34221H1.34447H1.34672H1.34897H1.35121H1.35346H1.3557H1.35794H1.36018H1.36241H1.36464H1.36688H1.3691H1.37133H1.37355H1.37577H1.37799H1.38021H1.38242H1.38463H1.38684H1.38905H1.39125H1.39345H1.39565H1.39785H1.40004H1.40036V178.323Z" stroke="#37383C"/>
<path d="M117.347 17.0116C117.347 18.1088 116.466 18.991 115.389 18.991C114.311 18.991 113.431 18.1088 113.431 17.0116C113.431 15.9144 114.311 15.0323 115.389 15.0323C116.466 15.0323 117.347 15.9144 117.347 17.0116Z" stroke="#37383C"/>
<path d="M82.7461 31.4543C82.7461 33.339 81.2325 34.8595 79.3743 34.8595C77.5161 34.8595 76.0024 33.339 76.0024 31.4543C76.0024 29.5697 77.5161 28.0492 79.3743 28.0492C81.2325 28.0492 82.7461 29.5697 82.7461 31.4543Z" stroke="#37383C"/>
<path d="M133.336 30.5288C133.903 30.5288 134.371 30.9948 134.371 31.5784C134.371 32.162 133.903 32.628 133.336 32.628H97.383C96.8152 32.628 96.3452 32.1608 96.3452 31.5784C96.3452 30.996 96.8152 30.5288 97.383 30.5288H133.336Z" stroke="#37383C"/>
<path d="M213.816 57.9099C214.643 57.9099 215.324 58.5891 215.324 59.4359V413.436C215.324 414.286 214.643 414.963 213.816 414.963H16.9637C16.1352 414.963 15.4551 414.285 15.4551 413.436V59.4359C15.4551 58.5892 16.1352 57.9099 16.9637 57.9099H213.816Z" stroke="#37383C"/>
</svg>
